<?xml version="1.0" encoding="utf-8"?>
<!-- Generator: Adobe Illustrator 27.3.1, SVG Export Plug-In . SVG Version: 6.00 Build 0)  -->
<svg version="1.1" id="Layer_1" xmlns="http://www.w3.org/2000/svg" xmlns:xlink="http://www.w3.org/1999/xlink" x="0px" y="0px"
	 viewBox="0 0 32 32" style="enable-background:new 0 0 32 32;" xml:space="preserve">
<style type="text/css">
	.st0{opacity:0.51;}
	.st1{fill:#E3E3E3;}
</style>
<g>
	<g class="st0">
		<path d="M12.4,14.52l-0.64-3.02h-2.8l-0.62,3.02H6.69L9.35,1.69h0.38H11h0.38l2.64,12.83H12.4z M9.29,9.9h2.13l-1.07-5.15
			L9.29,9.9z"/>
		<path d="M22.8,3.29v4.11h3.75v1.6H22.8v3.93h4.28v1.6H22.8h-1.6v-1.6V8.99v-1.6V3.29v-1.6h1.6h4.28v1.6H22.8z"/>
		<path d="M13.66,31.16h-1.53l-3.44-9.85v9.85H7.14V18.33h0.51h1.58l2.91,8.32v-8.32h1.53V31.16z"/>
		<path d="M24.78,18.36c0.35,0.06,0.69,0.18,1,0.35c0.31,0.18,0.58,0.4,0.81,0.67s0.41,0.57,0.53,0.9c0.13,0.33,0.19,0.68,0.19,1.05
			v6.83c0,0.38-0.07,0.75-0.2,1.09c-0.13,0.34-0.32,0.64-0.56,0.91c-0.24,0.27-0.52,0.49-0.84,0.67c-0.33,0.18-0.67,0.29-1.04,0.33
			h-0.02h-2.71h-0.64V19.93v-1.6h1.6h1.4h0.33h0.04c0.02,0,0.03,0,0.05,0.01C24.73,18.35,24.75,18.36,24.78,18.36z M25.71,21.24
			c0-0.31-0.08-0.58-0.23-0.8c-0.16-0.22-0.37-0.38-0.63-0.49h-1.95v9.61h1.95c0.27-0.1,0.48-0.27,0.63-0.49
			c0.16-0.22,0.23-0.49,0.23-0.8V21.24z"/>
	</g>
	<g>
		<g>
			<path class="st1" d="M11.4,13.52l-0.64-3.02h-2.8l-0.62,3.02H5.69L8.35,0.69h0.38H10h0.38l2.64,12.83H11.4z M8.29,8.9h2.13
				L9.35,3.75L8.29,8.9z"/>
			<path class="st1" d="M21.8,2.29v4.11h3.75v1.6H21.8v3.93h4.28v1.6H21.8h-1.6v-1.6V7.99v-1.6V2.29v-1.6h1.6h4.28v1.6H21.8z"/>
			<path class="st1" d="M12.66,30.16h-1.53l-3.44-9.85v9.85H6.14V17.33h0.51h1.58l2.91,8.32v-8.32h1.53V30.16z"/>
			<path class="st1" d="M23.78,17.36c0.35,0.06,0.69,0.18,1,0.35c0.31,0.18,0.58,0.4,0.81,0.67s0.41,0.57,0.53,0.9
				c0.13,0.33,0.19,0.68,0.19,1.05v6.83c0,0.38-0.07,0.75-0.2,1.09c-0.13,0.34-0.32,0.64-0.56,0.91c-0.24,0.27-0.52,0.49-0.84,0.67
				c-0.33,0.18-0.67,0.29-1.04,0.33h-0.02h-2.71h-0.64V18.93v-1.6h1.6h1.4h0.33h0.04c0.02,0,0.03,0,0.05,0.01
				C23.73,17.35,23.75,17.36,23.78,17.36z M24.71,20.24c0-0.31-0.08-0.58-0.23-0.8c-0.16-0.22-0.37-0.38-0.63-0.49h-1.95v9.61h1.95
				c0.27-0.1,0.48-0.27,0.63-0.49c0.16-0.22,0.23-0.49,0.23-0.8V20.24z"/>
		</g>
	</g>
</g>
</svg>
