<?xml version="1.0" encoding="utf-8"?>
<!-- Generator: Adobe Illustrator 26.3.1, SVG Export Plug-In . SVG Version: 6.00 Build 0)  -->
<svg version="1.1" baseProfile="basic" id="Layer_1"
	 xmlns="http://www.w3.org/2000/svg" xmlns:xlink="http://www.w3.org/1999/xlink" x="0px" y="0px" viewBox="0 0 32 32"
	 xml:space="preserve">
<style type="text/css">
	.st0{fill:#FFFFFF;}
</style>
<path class="st0" d="M29,3v26H3V3H29 M32,0H0v32h32V0L32,0z"/>
<g>
	<path class="st0" d="M5.03,15.09L8.6,2.61h2.83l3.58,12.48h-2.49L10.1,5.66H9.94l-2.43,9.43H5.03z M6.83,12.72v-2.14h6.29v2.14
		H6.83z"/>
	<path class="st0" d="M18.44,15.09V2.61h2.3v12.48H18.44z M18.44,4.74V2.61h8.5v2.14H18.44z M18.44,9.91V7.77h6.93v2.14H18.44z
		 M18.44,15.09v-2.14h8.5v2.14H18.44z"/>
	<path class="st0" d="M5.68,30.09V17.61H7.9v12.48H5.68z M10.41,30.09l-2.18-9.76H7.27v-2.72h1.88l2.18,9.76h0.58v2.72H10.41z
		 M11.65,30.09V17.61h2.22v12.48H11.65z"/>
	<path class="st0" d="M18.06,30.09V17.61h2.3v12.48H18.06z M20.24,30.09v-2.22h0.97c1.13,0,1.99-0.33,2.55-0.98
		c0.57-0.65,0.85-1.61,0.85-2.86c0-1.38-0.29-2.43-0.85-3.14c-0.57-0.71-1.42-1.06-2.55-1.06h-0.93l-0.21-2.21h1.14
		c3.88,0,5.82,2.14,5.82,6.42c0,4.04-1.94,6.06-5.82,6.06H20.24z"/>
</g>
</svg>
