<?xml version="1.0" encoding="utf-8"?>
<!-- Generator: Adobe Illustrator 27.3.1, SVG Export Plug-In . SVG Version: 6.00 Build 0)  -->
<svg version="1.1" id="Layer_1" xmlns="http://www.w3.org/2000/svg" xmlns:xlink="http://www.w3.org/1999/xlink" x="0px" y="0px"
	 viewBox="0 0 5000 3000" style="enable-background:new 0 0 5000 3000;" xml:space="preserve">
<style type="text/css">
	.st0{fill:url(#SVGID_1_);}
	.st1{clip-path:url(#SVGID_00000107554368414456474940000007176697252468721586_);}
	.st2{fill:#FFFFFF;}
	.st3{fill:#EDEDED;}
	.st4{fill:#DCDCDC;}
	.st5{fill:#CACACA;}
	.st6{fill:#B8B8B8;}
	.st7{fill:#A7A7A7;}
	.st8{fill:#959595;}
	.st9{fill:#838383;}
	.st10{fill:#717171;}
	.st11{fill:#606060;}
	.st12{fill:#4E4E4E;}
	.st13{fill:#3C3C3C;}
	.st14{fill:#2B2B2B;}
	.st15{fill:#191919;}
	
		.st16{clip-path:url(#SVGID_00000047765572727275816190000009758743088667649471_);fill:url(#SVGID_00000028295433858041639190000005611437063623415976_);}
	.st17{clip-path:url(#SVGID_00000117672640644724980100000011695004181354923145_);}
	.st18{fill:url(#SVGID_00000088836453701019681640000011922036164587427212_);}
	.st19{fill:url(#SVGID_00000127758235262016561820000003877254597787091381_);}
	.st20{fill:url(#SVGID_00000120538493641075781600000007871870895433981571_);}
	.st21{fill:url(#SVGID_00000176721878990938695250000015052516018091414917_);}
	.st22{fill:url(#SVGID_00000077289197571614673700000009002100606482093458_);}
	.st23{fill:url(#SVGID_00000148623946573340062360000006968114134498089861_);}
	.st24{fill:url(#SVGID_00000068645571322457001830000011416363582114504105_);}
	.st25{fill:url(#SVGID_00000081649713053429337540000015016190401553762952_);}
	.st26{fill:url(#SVGID_00000050636728351217273090000000428743110289875607_);}
	.st27{fill:url(#SVGID_00000037655876033918021440000008296441504997438631_);}
	.st28{fill:url(#SVGID_00000151507852170809018000000016159964378554225540_);}
	.st29{fill:url(#SVGID_00000013900632514021315710000005275463993662805143_);}
	.st30{clip-path:url(#SVGID_00000092458379620393819140000009312427834632653457_);}
	.st31{fill:#10141C;}
	.st32{fill:url(#SVGID_00000183929868218596973710000006564914514379920031_);}
	.st33{fill:url(#SVGID_00000072970447617947399080000011070163983059463831_);}
</style>
<g id="BAKCGROUND">
	
		<radialGradient id="SVGID_1_" cx="2397.405" cy="2339.408" r="3403.7397" gradientTransform="matrix(1 0 0 -1 0 3002)" gradientUnits="userSpaceOnUse">
		<stop  offset="0" style="stop-color:#1A1F28"/>
		<stop  offset="1" style="stop-color:#10141C"/>
	</radialGradient>
	<rect class="st0" width="5000" height="3000"/>
</g>
<g id="Object">
	<g>
		<g>
			<defs>
				<rect id="SVGID_00000116233650689737915630000000516375272120562317_" width="5000" height="3000"/>
			</defs>
			<clipPath id="SVGID_00000129894166781681920840000013158892961040987532_">
				<use xlink:href="#SVGID_00000116233650689737915630000000516375272120562317_"  style="overflow:visible;"/>
			</clipPath>
			<g style="clip-path:url(#SVGID_00000129894166781681920840000013158892961040987532_);">
				<path class="st2" d="M4376.5-108v386.5c0,11,6.5,26.5,14,34l225,225c8,8,23,14,34,14h400c11,0,20-9,20-20v-640c0-11-9-20-20-20
					h-653C4385.5-128,4376.5-119,4376.5-108z M5070,2875.5V2049c0-11-9-20-20-20h-412.5c-11,0-26.5-6.5-34-14l-186-186
					c-8-8-14-23-14-34v-185.5c0-11-6.5-26.5-14-34l-185-185c-8-8-14-23-14-34V1133c0-11-6.5-26.5-14-34L3905,827c-8-8-23-14-34-14
					h-84.5c-11,0-26.5-6.5-34-14L3292,338.5c-8-8-20.5-8-28.5,0L3201,401c-8,8-8,20.5,0,28.5l222,222c8,8,14,23,14,34V904
					c0,11,6.5,26.5,14,34l667.5,667.5c8,8,14,23,14,34v299c0,11,6.5,26.5,14,34L5056,2882C5063.5,2889,5070,2886.5,5070,2875.5z
					 M-622.5,474.5l1127,1127c8,8,14,23,14,34v379c0,11,9,20,20,20h577c11,0,26.5,6.5,34,14L1781,2680c8,8,8,20.5,0,28.5l-113,113
					c-8,8-20.5,8-28.5,0l-528-528.5c-8-8-23-14-34-14H850c-11,0-20,9-20,20v366c0,11-9,20-20,20H377.5c-11,0-20,9-20,20v612
					c0,11-9,20-20,20H-617c-11,0-20-9-20-20V480.5C-636.5,469.5-630.5,467-622.5,474.5z M-445.5,395l1116,1116c8,8,14,23,14,34v334
					c0,11,9,20,20,20h125c11,0,20-9,20-20v-151.5c0-11,9-20,20-20h201c11,0,26.5,6.5,34,14l530,530c8,8,20.5,8,28.5,0l57-57
					c8-8,8-20.5,0-28.5l-563-563c-8-8-23-14-34-14H944c-11,0-19.5-9-19-20c3-60,10-234.5-1-246C911.5,1310.5-301,98-446.5-47.5
					c-8-8-14-5-14,6l1,402C-459.5,371.5-453,387-445.5,395z M1960.5,3275.5l-855-855c-8-8-23-14-34-14h-130c-11,0-20,9-20,20v142
					c0,11,9,20,20,20H1042c11,0,20,9,20,20V2763c0,11-9,20-20,20H631.5c-11,0-26.5,6.5-34,14l-87.5,87.5c-8,8-14,23-14,34V3270
					c0,11,9,20,20,20h1439C1966,3290,1968.5,3283.5,1960.5,3275.5z M2351-140.5L3227.5,736c8,8,20.5,8,28.5,0l34-34
					c8-8,8-20.5,0-28.5l-268-268c-8-8-14-23-14-34v-360c0-11,9-20,20-20h120c11,0,26.5,6.5,34,14l565,565c8,8,20.5,8,28.5,0
					L3816,530c8-8,8-20.5,0-28.5L3684.5,370c-8-8-14-23-14-34v-88c0-11,9-20,20-20h80c11,0,26.5,6.5,34,14l522,522
					c8,8,8,20.5,0,28.5L4239,880c-8,8-8,20.5,0,28.5l290.5,290.5c8,8,14,23,14,34v424.5c0,11,9,20,20,20H5050c11,0,20-9,20-20v-600
					c0-11-6.5-26.5-14-34L4764.5,732c-8-8-23-14-34-14h-142c-11,0-26.5-6.5-34-14l-314-314c-8-8-14-23-14-34v-489c0-11-9-20-20-20
					h-1850C2345.5-154.5,2343-148,2351-140.5z"/>
				<path class="st3" d="M4391.5-119v386.5c0,11,6.5,26.5,14,34l225,225c8,8,23,14,34,14h400c11,0,20-9,20-20v-640c0-11-9-20-20-20
					h-653C4400.5-139,4391.5-130,4391.5-119z M5085,2864.5v-827c0-11-9-20-20-20h-412.5c-11,0-26.5-6.5-34-14l-186-186
					c-8-8-14-23-14-34V1598c0-11-6.5-26.5-14-34l-185-185c-8-8-14-23-14-34v-223.5c0-11-6.5-26.5-14-34L3920,816c-8-8-23-14-34-14
					h-84.5c-11,0-26.5-6.5-34-14L3307,327.5c-8-8-20.5-8-28.5,0L3216,390c-8,8-8,20.5,0,28.5l222,222c8,8,14,23,14,34V893
					c0,11,6.5,26.5,14,34l667.5,667.5c8,8,14,23,14,34v299c0,11,6.5,26.5,14,34L5071,2871C5078.5,2878,5085,2875.5,5085,2864.5z
					 M-607.5,463.5l1127,1127c8,8,14,23,14,34v379c0,11,9,20,20,20h577c11,0,26.5,6.5,34,14L1796,2669c8,8,8,20.5,0,28.5l-113,113
					c-8,8-20.5,8-28.5,0l-528-528.5c-8-8-23-14-34-14H865c-11,0-20,9-20,20v366.5c0,11-9,20-20,20H392.5c-11,0-20,9-20,20v612
					c0,11-9,20-20,20H-602c-11,0-20-9-20-20v-2837C-621.5,458.5-615.5,455.5-607.5,463.5z M-430.5,383.5L686,1500c8,8,14,23,14,34
					v334c0,11,9,20,20,20h125c11,0,20-9,20-20v-151.5c0-11,9-20,20-20h201c11,0,26.5,6.5,34,14l530,530c8,8,20.5,8,28.5,0l57-57
					c8-8,8-20.5,0-28.5L1172,1592c-8-8-23-14-34-14H959c-11,0-19.5-9-19-20c3-60,10-234.5-1-246C926.5,1299.5-286,87-431.5-58.5
					c-8-8-14-5-14,6l1,402C-444.5,360.5-438,376-430.5,383.5z M1975.5,3264.5l-855.5-855c-8-8-23-14-34-14H956c-11,0-20,9-20,20v142
					c0,11,9,20,20,20h100.5c11,0,20,9,20,20V2752c0,11-9,20-20,20H646c-11,0-26.5,6.5-34,14l-87.5,87.5c-8,8-14,23-14,34V3259
					c0,11,9,20,20,20h1439C1980.5,3278.5,1983.5,3272.5,1975.5,3264.5z M2366-151.5L3242.5,725c8,8,20.5,8,28.5,0l34-34
					c8-8,8-20.5,0-28.5l-268-268c-8-8-14-23-14-34V0.5c0-11,9-20,20-20h120c11,0,26.5,6.5,34,14l565,565c8,8,20.5,8,28.5,0L3831,519
					c8-8,8-20.5,0-28.5L3699.5,359c-8-8-14-23-14-34v-88.5c0-11,9-20,20-20h80c11,0,26.5,6.5,34,14l522,522c8,8,8,20.5,0,28.5
					l-87.5,87.5c-8,8-8,20.5,0,28.5l290.5,290.5c8,8,14,23,14,34V1646c0,11,9,20,20,20H5065c11,0,20-9,20-20v-600
					c0-11-6.5-26.5-14-34l-291.5-291.5c-8-8-23-14-34-14h-142c-11,0-26.5-6.5-34-14l-314-314c-8-8-14-23-14-34v-489c0-11-9-20-20-20
					h-1850C2360.5-165.5,2358-159,2366-151.5z"/>
				<path class="st4" d="M4406.5-130v386.5c0,11,6.5,26.5,14,34l225,225c8,8,23,14,34,14h400c11,0,20-9,20-20V-130c0-11-9-20-20-20
					h-653C4415.5-150,4406.5-141,4406.5-130z M5100,2853.5v-827c0-11-9-20-20-20h-412.5c-11,0-26.5-6.5-34-14l-186-186
					c-8-8-14-23-14-34V1587c0-11-6.5-26.5-14-34l-185-185c-8-8-14-23-14-34v-224c0-11-6.5-26.5-14-34L3935,805c-8-8-23-14-34-14
					h-84.5c-11,0-26.5-6.5-34-14L3322,316.5c-8-8-20.5-8-28.5,0L3231,379c-8,8-8,20.5,0,28.5l222,222c8,8,14,23,14,34V882
					c0,11,6.5,26.5,14,34l667.5,667.5c8,8,14,23,14,34v299c0,11,6.5,26.5,14,34L5086,2860C5093.5,2867,5100,2864.5,5100,2853.5z
					 M-592.5,452.5l1127,1127c8,8,14,23,14,34v379c0,11,9,20,20,20h577c11,0,26.5,6.5,34,14L1811,2658c8,8,8,20.5,0,28.5l-113,113
					c-8,8-20.5,8-28.5,0l-528-529c-8-8-23-14-34-14H880c-11,0-20,9-20,20V2643c0,11-9,20-20,20H407.5c-11,0-20,9-20,20v612
					c0,11-9,20-20,20H-587c-11,0-20-9-20-20V458C-607,447-600.5,444.5-592.5,452.5z M-415.5,372.5l1116,1116c8,8,14,23,14,34v334
					c0,11,9,20,20,20h125c11,0,20-9,20-20V1705c0-11,9-20,20-20h201c11,0,26.5,6.5,34,14l530,530c8,8,20.5,8,28.5,0l57-57
					c8-8,8-20.5,0-28.5L1187,1581c-8-8-23-14-34-14H974c-11,0-19.5-9-19-20c3-60,10-234.5-1-246C941.5,1288.5-271,76-416.5-69.5
					c-8-8-14-5-14,6l1,402C-429.5,349.5-423,364.5-415.5,372.5z M1990.5,3253.5L1135,2398c-8-8-23-14-34-14H971c-11,0-20,9-20,20
					v142c0,11,9,20,20,20h100.5c11,0,20,9,20,20v154.5c0,11-9,20-20,20H661c-11,0-26.5,6.5-34,14l-87.5,87.5c-8,8-14,23-14,34v351.5
					c0,11,9,20,20,20h1439C1995.5,3267.5,1998.5,3261.5,1990.5,3253.5z M2380.5-162.5L3257,714c8,8,20.5,8,28.5,0l34-34
					c8-8,8-20.5,0-28.5l-268-268c-8-8-14-23-14-34V-10c0-11,9-20,20-20h120c11,0,26.5,6.5,34,14l565,565c8,8,20.5,8,28.5,0
					l40.5-40.5c8-8,8-20.5,0-28.5L3714,348.5c-8-8-14-23-14-34v-89c0-11,9-20,20-20h80c11,0,26.5,6.5,34,14l522,522
					c8,8,8,20.5,0,28.5l-87.5,87.5c-8,8-8,20.5,0,28.5l290.5,290.5c8,8,14,23,14,34V1635c0,11,9,20,20,20h486.5c11,0,20-9,20-20
					v-600c0-11-6.5-26.5-14-34L4794,709.5c-8-8-23-14-34-14h-142c-11,0-26.5-6.5-34-14l-314-314c-8-8-14-23-14-34v-489
					c0-11-9-20-20-20H2386.5C2375.5-176.5,2373-170.5,2380.5-162.5z"/>
				<path class="st5" d="M4421.5-141v386.5c0,11,6.5,26.5,14,34l225,225c8,8,23,14,34,14h400c11,0,20-9,20-20v-640c0-11-9-20-20-20
					h-653C4430.5-161,4421.5-152,4421.5-141z M5115,2842v-826.5c0-11-9-20-20-20h-412.5c-11,0-26.5-6.5-34-14l-186-186
					c-8-8-14-23-14-34V1576c0-11-6.5-26.5-14-34l-185-185c-8-8-14-23-14-34v-223.5c0-11-6.5-26.5-14-34L3950,794c-8-8-23-14-34-14
					h-84.5c-11,0-26.5-6.5-34-14l-461-461c-8-8-20.5-8-28.5,0l-62.5,62.5c-8,8-8,20.5,0,28.5l222,222c8,8,14,23,14,34v218
					c0,11,6.5,26.5,14,34l667.5,667.5c8,8,14,23,14,34v299c0,11,6.5,26.5,14,34l909.5,909.5C5108.5,2856,5115,2853.5,5115,2842z
					 M-577.5,441.5l1127,1127c8,8,14,23,14,34v379c0,11,9,20,20,20h577c11,0,26.5,6.5,34,14L1826,2647c8,8,8,20.5,0,28.5l-113,113
					c-8,8-20.5,8-28.5,0l-528-529c-8-8-23-14-34-14H895c-11,0-20,9-20,20V2632c0,11-9,20-20,20H422.5c-11,0-20,9-20,20v612
					c0,11-9,20-20,20H-572c-11,0-20-9-20-20V447C-592,436-585.5,433.5-577.5,441.5z M-400.5,361.5l1116,1116c8,8,14,23,14,34v334
					c0,11,9,20,20,20h125c11,0,20-9,20-20V1694c0-11,9-20,20-20h201c11,0,26.5,6.5,34,14l530,530c8,8,20.5,8,28.5,0l57-57
					c8-8,8-20.5,0-28.5L1202,1570c-8-8-23-14-34-14H989c-11,0-19.5-9-19-20c3-60,10-234.5-1-246C956.5,1277.5-256,65-401.5-80.5
					c-8-8-14-5-14,6l1,402C-414.5,338.5-408.5,353.5-400.5,361.5z M2005.5,3242.5L1150,2387c-8-8-23-14-34-14H986c-11,0-20,9-20,20
					v142c0,11,9,20,20,20h100.5c11,0,20,9,20,20v154.5c0,11-9,20-20,20H676c-11,0-26.5,6.5-34,14l-87.5,87.5c-8,8-14,23-14,34v351.5
					c0,11,9,20,20,20h1439C2010.5,3256.5,2013.5,3250,2005.5,3242.5z M2395.5-173.5L3272,703c8,8,20.5,8,28.5,0l34-34
					c8-8,8-20.5,0-28.5l-268-268c-8-8-14-23-14-34v-360c0-11,9-20,20-20h120c11,0,26.5,6.5,34,14l565,565c8,8,20.5,8,28.5,0
					l40.5-40.5c8-8,8-20.5,0-28.5L3729,337c-8-8-14-23-14-34v-88.5c0-11,9-20,20-20h80c11,0,26.5,6.5,34,14l522,522
					c8,8,8,20.5,0,28.5l-87.5,87.5c-8,8-8,20.5,0,28.5l290.5,290.5c8,8,14,23,14,34V1624c0,11,9,20,20,20h486.5c11,0,20-9,20-20
					v-600c0-11-6.5-26.5-14-34L4809,698.5c-8-8-23-14-34-14h-142c-11,0-26.5-6.5-34-14l-314-314c-8-8-14-23-14-34v-489
					c0-11-9-20-20-20H2401.5C2390.5-188,2388-181.5,2395.5-173.5z"/>
				<path class="st6" d="M4436.5-152v386.5c0,11,6.5,26.5,14,34l225,225c8,8,23,14,34,14h400c11,0,20-9,20-20v-640c0-11-9-20-20-20
					h-653C4445.5-172,4436.5-163.5,4436.5-152z M5130,2831v-826.5c0-11-9-20-20-20h-412.5c-11,0-26.5-6.5-34-14l-186-186
					c-8-8-14-23-14-34V1565c0-11-6.5-26.5-14-34l-185-185c-8-8-14-23-14-34v-223.5c0-11-6.5-26.5-14-34l-271-271c-8-8-23-14-34-14
					H3847c-11,0-26.5-6.5-34-14L3352.5,295c-8-8-20.5-8-28.5,0l-62.5,62.5c-8,8-8,20.5,0,28.5l222,222c8,8,14,23,14,34v218.5
					c0,11,6.5,26.5,14,34L4179,1562c8,8,14,23,14,34v299c0,11,6.5,26.5,14,34l909.5,909.5C5123.5,2845,5130,2842,5130,2831z
					 M-562.5,430l1127,1127c8,8,14,23,14,34v379c0,11,9,20,20,20h577c11,0,26.5,6.5,34,14l631.5,631.5c8,8,8,20.5,0,28.5l-113,113
					c-8,8-20.5,8-28.5,0L1171,2248.5c-8-8-23-14-34-14H910c-11,0-20,9-20,20V2621c0,11-9,20-20,20H437.5c-11,0-20,9-20,20v612
					c0,11-9,20-20,20H-557c-11,0-20-9-20-20V436C-577,425-570.5,422.5-562.5,430z M-385.5,350.5l1116,1116c8,8,14,23,14,34v334
					c0,11,9,20,20,20h125c11,0,20-9,20-20V1683c0-11,9-20,20-20h201c11,0,26.5,6.5,34,14l530,530c8,8,20.5,8,28.5,0l57-57
					c8-8,8-20.5,0-28.5L1217,1559c-8-8-23-14-34-14h-179c-11,0-19.5-9-19-20c3-60,10-234.5-1-246C971.5,1266.5-241,54-386.5-91.5
					c-8-8-14-5-14,6l1,402C-399.5,327-393.5,342.5-385.5,350.5z M2020.5,3231L1165,2376c-8-8-23-14-34-14h-130c-11,0-20,9-20,20v142
					c0,11,9,20,20,20h100.5c11,0,20,9,20,20v154.5c0,11-9,20-20,20H691c-11,0-26.5,6.5-34,14l-87.5,87.5c-8,8-14,23-14,34v351.5
					c0,11,9,20,20,20h1439C2025.5,3245.5,2028,3239,2020.5,3231z M2410.5-184.5L3287,692c8,8,20.5,8,28.5,0l34-34c8-8,8-20.5,0-28.5
					l-268-268c-8-8-14-23-14-34v-360c0-11,9-20,20-20h120c11,0,26.5,6.5,34,14l565,565c8,8,20.5,8,28.5,0l40.5-40.5
					c8-8,8-20.5,0-28.5L3744,326c-8-8-14-23-14-34v-88.5c0-11,9-20,20-20h80c11,0,26.5,6.5,34,14l522,522c8,8,8,20.5,0,28.5
					l-87.5,87c-8,8-8,20.5,0,28.5L4589,1154c8,8,14,23,14,34v424.5c0,11,9,20,20,20h486.5c11,0,20-9,20-20v-600c0-11-6.5-26.5-14-34
					L4824,687c-8-8-23-14-34-14h-142c-11,0-26.5-6.5-34-14l-314-314c-8-8-14-23-14-34v-489c0-11-9-20-20-20H2416.5
					C2405.5-199,2403-192.5,2410.5-184.5z"/>
				<path class="st7" d="M4451.5-163.5V223c0,11,6.5,26.5,14,34l225,225c8,8,23,14,34,14h400c11,0,20-9,20-20v-640c0-11-9-20-20-20
					h-653C4460.5-183.5,4451.5-174.5,4451.5-163.5z M5145,2820v-826.5c0-11-9-20-20-20h-412.5c-11,0-26.5-6.5-34-14l-186-186
					c-8-8-14-23-14-34V1554c0-11-6.5-26.5-14-34l-185-185c-8-8-14-23-14-34v-223.5c0-11-6.5-26.5-14-34l-271-271c-8-8-23-14-34-14
					H3862c-11,0-26.5-6.5-34-14L3367.5,284c-8-8-20.5-8-28.5,0l-63.5,61c-8,8-8,20.5,0,28.5l222,222c8,8,14,23,14,34V848
					c0,11,6.5,26.5,14,34l667.5,667.5c8,8,14,23,14,34v299c0,11,6.5,26.5,14,34l909.5,909.5C5138.5,2833.5,5145,2831,5145,2820z
					 M-547.5,419l1127,1127c8,8,14,23,14,34v379c0,11,9,20,20,20H1190c11,0,26.5,6.5,34,14l632,632c8,8,8,20.5,0,28.5l-113,113
					c-8,8-20.5,8-28.5,0l-528.5-529c-8-8-23-14-34-14H925c-11,0-20,9-20,20V2610c0,11-9,20-20,20H452.5c-11,0-20,9-20,20v612
					c0,11-9,20-20,20H-542c-11,0-20-9-20-20V425C-562,414-555.5,411-547.5,419z M-370.5,339l1116,1116c8,8,14,23,14,34v334
					c0,11,9,20,20,20h125c11,0,20-9,20-20v-151.5c0-11,9-20,20-20h201c11,0,26.5,6.5,34,14l530,530c8,8,20.5,8,28.5,0l57-57
					c8-8,8-20.5,0-28.5l-563-562.5c-8-8-23-14-34-14h-179c-11,0-19.5-9-19-20c3-60,10-234.5-1-246C986.5,1255-226,42.5-371.5-103
					c-8-8-14-5-14,6l1,402C-384.5,316-378.5,331.5-370.5,339z M2035.5,3220L1180,2365c-8-8-23-14-34-14h-130c-11,0-20,9-20,20v142
					c0,11,9,20,20,20h100.5c11,0,20,9,20,20v154.5c0,11-9,20-20,20H706c-11,0-26.5,6.5-34,14l-87.5,87.5c-8,8-14,23-14,34v351.5
					c0,11,9,20,20,20h1439C2040.5,3234.5,2043,3228,2035.5,3220z M2425.5-196L3302,680.5c8,8,20.5,8,28.5,0l34-34c8-8,8-20.5,0-28.5
					l-268-268c-8-8-14-23-14-34V-44c0-11,9-20,20-20h120c11,0,26.5,6.5,34,14l565,565c8,8,20.5,8,28.5,0l40.5-40.5
					c8-8,8-20.5,0-28.5L3759,314.5c-8-8-14-23-14-34V192c0-11,9-20,20-20h80c11,0,26.5,6.5,34,14l522,522c8,8,8,20.5,0,28.5
					l-87.5,87.5c-8,8-8,20.5,0,28.5L4604,1143c8,8,14,23,14,34v424.5c0,11,9,20,20,20h486.5c11,0,20-9,20-20v-600
					c0-11-6.5-26.5-14-34L4839,676c-8-8-23-14-34-14h-142c-11,0-26.5-6.5-34-14l-314-314c-8-8-14-23-14-34v-490c0-11-9-20-20-20
					H2431.5C2420.5-210,2418-203.5,2425.5-196z"/>
				<path class="st8" d="M4466.5-174.5V212c0,11,6.5,26.5,14,34l225,225c8,8,23,14,34,14h400c11,0,20-9,20-20v-640c0-11-9-20-20-20
					h-653C4475.5-194.5,4466.5-185.5,4466.5-174.5z M5159.5,2809v-827c0-11-9-20-20-20H4727c-11,0-26.5-6.5-34-14l-186-186
					c-8-8-14-23-14-34v-185.5c0-11-6.5-26.5-14-34l-185-185c-8-8-14-23-14-34V1066c0-11-6.5-26.5-14-34l-271-271c-8-8-23-14-34-14
					h-84.5c-11,0-26.5-6.5-34-14L3382,272.5c-8-8-20.5-8-28.5,0L3291,335c-8,8-8,20.5,0,28.5l222,222c8,8,14,23,14,34V838
					c0,11,6.5,26.5,14,34l667.5,667.5c8,8,14,23,14,34v299c0,11,6.5,26.5,14,34L5146,2816C5153.5,2822.5,5159.5,2820,5159.5,2809z
					 M-533,408L594,1535c8,8,14,23,14,34v379c0,11,9,20,20,20h577c11,0,26.5,6.5,34,14l631.5,631.5c8,8,8,20.5,0,28.5L1758,2755
					c-8,8-20.5,8-28.5,0L1201,2226.5c-8-8-23-14-34-14H940c-11,0-20,9-20,20V2599c0,11-9,20-20,20H467.5c-11,0-20,9-20,20v612
					c0,11-9,20-20,20H-527c-11,0-20-9-20-20V414C-547,402.5-540.5,400-533,408z M-355.5,328l1116,1116c8,8,14,23,14,34v334
					c0,11,9,20,20,20h125c11,0,20-9,20-20v-151.5c0-11,9-20,20-20h201c11,0,26.5,6.5,34,14l530,530c8,8,20.5,8,28.5,0l57-57
					c8-8,8-20.5,0-28.5l-563.5-562.5c-8-8-23-14-34-14h-179c-11,0-19.5-9-19-20c3-60,10-234.5-1-246C1001,1244-211.5,31.5-357-114
					c-8-8-14-5-14,6l1,402C-369.5,305-363.5,320.5-355.5,328z M2050.5,3209L1195,2353.5c-8-8-23-14-34-14h-130c-11,0-20,9-20,20v142
					c0,11,9,20,20,20h100.5c11,0,20,9,20,20V2696c0,11-9,20-20,20H721c-11,0-26.5,6.5-34,14l-87.5,87.5c-8,8-14,23-14,34V3203
					c0,11,9,20,20,20h1439C2055.5,3223,2058,3217,2050.5,3209z M2440.5-207L3317,669.5c8,8,20.5,8,28.5,0l34-34c8-8,8-20.5,0-28.5
					l-268-268c-8-8-14-23-14-34V-55c0-11,9-20,20-20h120c11,0,26.5,6.5,34,14l565,565c8,8,20.5,8,28.5,0l40.5-40.5
					c8-8,8-20.5,0-28.5L3774,303.5c-8-8-14-23-14-34V181c0-11,9-20,20-20h80c11,0,26.5,6.5,34,14l522,522c8,8,8,20.5,0,28.5
					l-87.5,87.5c-8,8-8,20.5,0,28.5L4619,1132c8,8,14,23,14,34v424c0,11,9,20,20,20h486.5c11,0,20-9,20-20V990c0-11-6.5-26.5-14-34
					L4854,664.5c-8-8-23-14-34-14h-142c-11,0-26.5-6.5-34-14l-314-314c-8-8-14-23-14-34v-489c0-11-9-20-20-20H2446.5
					C2435.5-221,2432.5-215,2440.5-207z"/>
				<path class="st9" d="M4481.5-185.5V201c0,11,6.5,26.5,14,34l225,225c8,8,23,14,34,14h400c11,0,20-9,20-20v-640c0-11-9-20-20-20
					h-653C4490.5-205.5,4481.5-196.5,4481.5-185.5z M5174.5,2798v-827c0-11-9-20-20-20H4742c-11,0-26.5-6.5-34-14l-186-186
					c-8-8-14-23-14-34v-185.5c0-11-6.5-26.5-14-34l-185-185c-8-8-14-23-14-34V1055c0-11-6.5-26.5-14-34l-271-271c-8-8-23-14-34-14
					h-84.5c-11,0-26.5-6.5-34-14L3397,261.5c-8-8-20.5-8-28.5,0L3306,324c-8,8-8,20.5,0,28.5l222,222c8,8,14,23,14,34V827
					c0,11,6.5,26.5,14,34l667.5,667.5c8,8,14,23,14,34V1860c0,11,6.5,26.5,14,34l909.5,909.5C5168.5,2811.5,5174.5,2809,5174.5,2798
					z M-518,397L609,1524c8,8,14,23,14,34v379c0,11,9,20,20,20h577c11,0,26.5,6.5,34,14l631.5,631.5c8,8,8,20.5,0,28.5l-113,113
					c-8,8-20.5,8-28.5,0l-528-529c-8-8-23-14-34-14H955c-11,0-20,9-20,20v366.5c0,11-9,20-20,20H482.5c-11,0-20,9-20,20v612
					c0,11-9,20-20,20H-512c-11,0-20-9-20-20v-2837C-532,391.5-525.5,389-518,397z M-340.5,317l1116,1116c8,8,14,23,14,34v334
					c0,11,9,20,20,20h125c11,0,20-9,20-20v-151c0-11,9-20,20-20h201c11,0,26.5,6.5,34,14l530,530c8,8,20.5,8,28.5,0l57-57
					c8-8,8-20.5,0-28.5l-563.5-563c-8-8-23-14-34-14h-179c-11,0-19.5-9-19-20c3-60,10-234.5-1-246C1016,1233-196.5,20.5-342-125
					c-8-8-14-5-14,6l1,402C-355,294-348.5,309-340.5,317z M2065.5,3198L1210,2342.5c-8-8-23-14-34-14h-130c-11,0-20,9-20,20v142
					c0,11,9,20,20,20h100.5c11,0,20,9,20,20V2685c0,11-9,20-20,20H736c-11,0-26.5,6.5-34,14l-87.5,87.5c-8,8-14,23-14,34V3192
					c0,11,9,20,20,20h1439C2070.5,3212,2073,3205.5,2065.5,3198z M2455.5-218L3332,658.5c8,8,20.5,8,28.5,0l34-34c8-8,8-20.5,0-28.5
					l-268-268c-8-8-14-23-14-34V-66c0-11,9-20,20-20h120c11,0,26.5,6.5,34,14l565,565c8,8,20.5,8,28.5,0l40.5-40.5
					c8-8,8-20.5,0-28.5L3789,292.5c-8-8-14-23-14-34V170c0-11,9-20,20-20h80c11,0,26.5,6.5,34,14l522,522c8,8,8,20.5,0,28.5
					l-87.5,87.5c-8,8-8,20.5,0,28.5L4634,1121c8,8,14,23,14,34v424.5c0,11,9,20,20,20h486.5c11,0,20-9,20-20v-600
					c0-11-6.5-26.5-14-34L4869,654c-8-8-23-14-34-14h-142c-11,0-26.5-6.5-34-14l-314-314c-8-8-14-23-14-34v-489c0-11-9-20-20-20
					H2461.5C2450.5-232,2447.5-226,2455.5-218z"/>
				<path class="st10" d="M4496.5-196.5V190c0,11,6.5,26.5,14,34l225,225c8,8,23,14,34,14h400c11,0,20-9,20-20v-640c0-11-9-20-20-20
					h-653C4505.5-216.5,4496.5-207.5,4496.5-196.5z M5189.5,2786.5V1960c0-11-9-20-20-20H4757c-11,0-26.5-6.5-34-14l-186-186
					c-8-8-14-23-14-34v-185.5c0-11-6.5-26.5-14-34l-185-185c-8-8-14-23-14-34V1044c0-11-6.5-26.5-14-34l-271-271c-8-8-23-14-34-14
					h-84.5c-11,0-26.5-6.5-34-14L3412,250.5c-8-8-20.5-8-28.5,0L3321,313c-8,8-8,20.5,0,28.5l222,222c8,8,14,23,14,34V816
					c0,11,6.5,26.5,14,34l667.5,667.5c8,8,14,23,14,34v299c0,11,6.5,26.5,14,34L5176,2794
					C5183.5,2800.5,5189.5,2797.5,5189.5,2786.5z M-503,385.5l1127,1127c8,8,14,23,14,34v379c0,11,9,20,20,20h577
					c11,0,26.5,6.5,34,14l631.5,631.5c8,8,8,20.5,0,28.5l-113,113c-8,8-20.5,8-28.5,0L1231,2204c-8-8-23-14-34-14H970
					c-11,0-20,9-20,20v366.5c0,11-9,20-20,20H497.5c-11,0-20,9-20,20v612c0,11-9,20-20,20H-497c-11,0-20-9-20-20v-2837
					C-517,380.5-510.5,378-503,385.5z M-325.5,306l1116,1116c8,8,14,23,14,34v334c0,11,9,20,20,20h125c11,0,20-9,20-20v-151.5
					c0-11,9-20,20-20h201c11,0,26.5,6.5,34,14l530,530c8,8,20.5,8,28.5,0l57-57c8-8,8-20.5,0-28.5l-563.5-562.5c-8-8-23-14-34-14
					h-179c-11,0-19.5-9-19-20c3-60,10-234.5-1-246C1031,1222-181.5,9.5-327-136c-8-8-14-5-14,6l1,402C-340,283-333.5,298-325.5,306z
					 M2080,3187l-855-855.5c-8-8-23-14-34-14h-130c-11,0-20,9-20,20v142c0,11,9,20,20,20h100.5c11,0,20,9,20,20V2674
					c0,11-9,20-20,20H751c-11,0-26.5,6.5-34,14l-87.5,87.5c-8,8-14,23-14,34V3181c0,11,9,20,20,20h1439
					C2085.5,3201,2088,3194.5,2080,3187z M2470.5-229L3347,647.5c8,8,20.5,8,28.5,0l34-34c8-8,8-20.5,0-28.5l-268-268
					c-8-8-14-23-14-34V-77c0-11,9-20,20-20h120c11,0,26.5,6.5,34,14l565,565c8,8,20.5,8,28.5,0l40.5-40.5c8-8,8-20.5,0-28.5
					L3804,281.5c-8-8-14-23-14-34V159c0-11,9-20,20-20h80c11,0,26.5,6.5,34,14l522,522c8,8,8,20.5,0,28.5l-87.5,87.5
					c-8,8-8,20.5,0,28.5L4649,1110c8,8,14,23,14,34v424.5c0,11,9,20,20,20h486.5c11,0,20-9,20-20v-600c0-11-6.5-26.5-14-34L4884,643
					c-8-8-23-14-34-14h-142c-11,0-26.5-6.5-34-14l-314-314c-8-8-14-23-14-34v-489c0-11-9-20-20-20H2476.5
					C2465.5-243.5,2462.5-237,2470.5-229z"/>
				<path class="st11" d="M4511.5-208v386.5c0,11,6.5,26.5,14,34l225,225c8,8,23,14,34,14h400c11,0,20-9,20-20v-640c0-11-9-20-20-20
					h-653C4520-228,4511.5-219,4511.5-208z M5204.5,2775.5V1949c0-11-9-20-20-20H4772c-11,0-26.5-6.5-34-14l-186-186
					c-8-8-14-23-14-34v-185.5c0-11-6.5-26.5-14-34l-185-185c-8-8-14-23-14-34V1033c0-11-6.5-26.5-14-34l-271-271c-8-8-23-14-34-14
					h-84.5c-11,0-26.5-6.5-34-14L3427,239.5c-8-8-20.5-8-28.5,0L3336,302c-8,8-8,20.5,0,28.5l222,222c8,8,14,23,14,34V805
					c0,11,6.5,26.5,14,34l667.5,667.5c8,8,14,23,14,34v299c0,11,6.5,26.5,14,34L5191,2783C5198.5,2789,5204.5,2786.5,5204.5,2775.5z
					 M-488,374.5l1127,1127c8,8,14,23,14,34v379c0,11,9,20,20,20h577c11,0,26.5,6.5,34,14l631.5,631.5c8,8,8,20.5,0,28.5l-113,113
					c-8,8-20.5,8-28.5,0L1246,2193c-8-8-23-14-34-14H985c-11,0-20,9-20,20v366c0,11-9,20-20,20H512.5c-11,0-20,9-20,20v612
					c0,11-9,20-20,20H-482c-11,0-20-9-20-20V380.5C-502,369.5-495.5,367-488,374.5z M-310.5,295l1116,1116c8,8,14,23,14,34v334
					c0,11,9,20,20,20h125c11,0,20-9,20-20v-151.5c0-11,9-20,20-20h201c11,0,26.5,6.5,34,14l530,530c8,8,20.5,8,28.5,0l57-56.5
					c8-8,8-20.5,0-28.5L1291.5,1503c-8-8-23-14-34-14h-179c-11,0-19.5-9-19-20c3-60,10-234.5-1-246C1046,1210.5-166.5-2-312-147.5
					c-8-8-14-5-14,6l1,402C-325,271.5-318.5,287-310.5,295z M2095,3175.5l-855-855c-8-8-23-14-34-14h-130c-11,0-20,9-20,20v142
					c0,11,9,20,20,20h100.5c11,0,20,9,20,20V2663c0,11-9,20-20,20H766c-11,0-26.5,6.5-34,14l-87.5,87.5c-8,8-14,23-14,34V3170
					c0,11,9,20,20,20h1439C2100.5,3190,2103,3183.5,2095,3175.5z M2485.5-240.5L3362,636c8,8,20.5,8,28.5,0l34-34c8-8,8-20.5,0-28.5
					l-268-268c-8-8-14-23-14-34v-360c0-11,9-20,20-20h120c11,0,26.5,6.5,34,14l565,565c8,8,20.5,8,28.5,0l40.5-40.5
					c8-8,8-20.5,0-28.5L3819,270c-8-8-14-23-14-34v-88c0-11,9-20,20-20h80c11,0,26.5,6.5,34,14l522,522c8,8,8,20.5,0,28.5
					l-87.5,87.5c-8,8-8,20.5,0,28.5L4664,1099c8,8,14,23,14,34v424.5c0,11,9,20,20,20h486.5c11,0,20-9,20-20v-600
					c0-11-6.5-26.5-14-34L4899,632c-8-8-23-14-34-14h-142c-11,0-26.5-6.5-34-14l-314-314c-8-8-14-23-14-34v-489c0-11-9-20-20-20
					H2491.5C2480-254.5,2477.5-248,2485.5-240.5z"/>
				<path class="st12" d="M4526-219v386.5c0,11,6.5,26.5,14,34l225,225c8,8,23,14,34,14h400c11,0,20-9,20-20v-640c0-11-9-20-20-20
					h-653C4535-239,4526-230,4526-219z M5219.5,2764.5v-827c0-11-9-20-20-20H4787c-11,0-26.5-6.5-34-14l-186-186c-8-8-14-23-14-34
					V1498c0-11-6.5-26.5-14-34l-185-185c-8-8-14-23-14-34v-223.5c0-11-6.5-26.5-14-34l-271-271c-8-8-23-14-34-14h-84.5
					c-11,0-26.5-6.5-34-14L3442,228c-8-8-20.5-8-28.5,0l-62.5,62.5c-8,8-8,20.5,0,28.5l222,222c8,8,14,23,14,34v218.5
					c0,11,6.5,26.5,14,34l667.5,667.5c8,8,14,23,14,34v299c0,11,6.5,26.5,14,34l909.5,909.5C5213,2778,5219.5,2775.5,5219.5,2764.5z
					 M-473,363.5l1127,1127c8,8,14,23,14,34v379c0,11,9,20,20,20h577c11,0,26.5,6.5,34,14l631.5,631.5c8,8,8,20.5,0,28.5l-113,113
					c-8,8-20.5,8-28.5,0L1261,2182c-8-8-23-14-34-14h-227c-11,0-20,9-20,20v366.5c0,11-9,20-20,20H527.5c-11,0-20,9-20,20v612
					c0,11-9,20-20,20H-467c-11,0-20-9-20-20v-2837C-487,358.5-481,355.5-473,363.5z M-295.5,283.5L820.5,1400c8,8,14,23,14,34v334
					c0,11,9,20,20,20h125c11,0,20-9,20-20v-151.5c0-11,9-20,20-20h201c11,0,26.5,6.5,34,14l530,530c8,8,20.5,8,28.5,0l57-57
					c8-8,8-20.5,0-28.5l-563.5-563c-8-8-23-14-34-14h-179c-11,0-19.5-9-19-20c3-60,10-234.5-1-246C1061,1199.5-151.5-13-297-158.5
					c-8-8-14-5-14,6l1,402C-310,260.5-303.5,276-295.5,283.5z M2110,3164.5l-855-855c-8-8-23-14-34-14h-130c-11,0-20,9-20,20v142
					c0,11,9,20,20,20h100.5c11,0,20,9,20,20V2652c0,11-9,20-20,20H781c-11,0-26.5,6.5-34,14l-87.5,87.5c-8,8-14,23-14,34V3159
					c0,11,9,20,20,20h1439C2115.5,3178.5,2118,3172.5,2110,3164.5z M2500.5-251.5L3377,625c8,8,20.5,8,28.5,0l34-34
					c8-8,8-20.5,0-28.5l-268-268c-8-8-14-23-14-34v-360c0-11,9-20,20-20h120c11,0,26.5,6.5,34,14l565,565c8,8,20.5,8,28.5,0
					l40.5-40.5c8-8,8-20.5,0-28.5L3834,259c-8-8-14-23-14-34v-88.5c0-11,9-20,20-20h80c11,0,26.5,6.5,34,14l522,522
					c8,8,8,20.5,0,28.5l-87.5,87.5c-8,8-8,20.5,0,28.5l290.5,290.5c8,8,14,23,14,34V1546c0,11,9,20,20,20h486.5c11,0,20-9,20-20V946
					c0-11-6.5-26.5-14-34L4914,620.5c-8-8-23-14-34-14h-142c-11,0-26.5-6.5-34-14l-314-314c-8-8-14-23-14-34v-489c0-11-9-20-20-20
					H2506C2495-265.5,2492.5-259,2500.5-251.5z"/>
				<path class="st13" d="M4541-230v386.5c0,11,6.5,26.5,14,34l225,225c8,8,23,14,34,14h400c11,0,20-9,20-20V-230c0-11-9-20-20-20
					h-653C4550-250,4541-241,4541-230z M5234.5,2753.5v-827c0-11-9-20-20-20H4802c-11,0-26.5-6.5-34-14l-186-186c-8-8-14-23-14-34
					V1487c0-11-6.5-26.5-14-34l-185-185c-8-8-14-23-14-34v-224c0-11-6.5-26.5-14-34l-271.5-271c-8-8-23-14-34-14H3951
					c-11,0-26.5-6.5-34-14l-460.5-460.5c-8-8-20.5-8-28.5,0l-62.5,62.5c-8,8-8,20.5,0,28.5l222,222c8,8,14,23,14,34V782
					c0,11,6.5,26.5,14,34l667.5,667.5c8,8,14,23,14,34v299c0,11,6.5,26.5,14,34l909.5,909.5C5228,2767,5234.5,2764.5,5234.5,2753.5z
					 M-458,352.5l1127,1127c8,8,14,23,14,34v379c0,11,9,20,20,20h577c11,0,26.5,6.5,34,14l631.5,631.5c8,8,8,20.5,0,28.5l-113,113
					c-8,8-20.5,8-28.5,0l-528-529c-8-8-23-14-34-14h-227c-11,0-20,9-20,20V2543c0,11-9,20-20,20H542.5c-11,0-20,9-20,20v612
					c0,11-9,20-20,20H-452c-11,0-20-9-20-20V358C-472,347-466,344.5-458,352.5z M-281,272.5l1116,1116c8,8,14,23,14,34v334
					c0,11,9,20,20,20h125c11,0,20-9,20-20V1605c0-11,9-20,20-20h201c11,0,26.5,6.5,34,14l530,530c8,8,20.5,8,28.5,0l57-57
					c8-8,8-20.5,0-28.5l-563-562.5c-8-8-23-14-34-14h-179c-11,0-19.5-9-19-20c3-60,10-234.5-1-246C1076,1188.5-136.5-24-282-169.5
					c-8-8-14-5-14,6l1,402C-295,249.5-288.5,264.5-281,272.5z M2125,3153.5L1270,2298c-8-8-23-14-34-14h-130c-11,0-20,9-20,20v142
					c0,11,9,20,20,20h100.5c11,0,20,9,20,20v154.5c0,11-9,20-20,20H796c-11,0-26.5,6.5-34,14l-87.5,87.5c-8,8-14,23-14,34v351.5
					c0,11,9,20,20,20h1439C2130.5,3167.5,2133,3161.5,2125,3153.5z M2515.5-262.5L3392,614c8,8,20.5,8,28.5,0l34-34
					c8-8,8-20.5,0-28.5l-268-268c-8-8-14-23-14-34v-360c0-11,9-20,20-20h120c11,0,26.5,6.5,34,14l565,565c8,8,20.5,8,28.5,0
					l40.5-40.5c8-8,8-20.5,0-28.5L3849,248c-8-8-14-23-14-34v-88.5c0-11,9-20,20-20h80c11,0,26.5,6.5,34,14l522,522
					c8,8,8,20.5,0,28.5l-87.5,87.5c-8,8-8,20.5,0,28.5l290.5,290.5c8,8,14,23,14,34V1535c0,11,9,20,20,20h486.5c11,0,20-9,20-20V935
					c0-11-6.5-26.5-14-34L4929,609.5c-8-8-23-14-34-14h-142c-11,0-26.5-6.5-34-14l-314-314c-8-8-14-23-14-34v-489c0-11-9-20-20-20
					H2521C2510-276.5,2507.5-270.5,2515.5-262.5z"/>
				<path class="st14" d="M4556-241v386.5c0,11,6.5,26.5,14,34l225,225c8,8,23,14,34,14h400c11,0,20-9,20-20v-640c0-11-9-20-20-20
					h-653C4565-261,4556-252,4556-241z M5249.5,2742v-826.5c0-11-9-20-20-20H4817c-11,0-26.5-6.5-34-14l-186-186c-8-8-14-23-14-34
					V1476c0-11-6.5-26.5-14-34l-185-185c-8-8-14-23-14-34V999.5c0-11-6.5-26.5-14-34l-271-271c-8-8-23-14-34-14h-84.5
					c-11,0-26.5-6.5-34-14L3471,205c-8-8-20.5-8-28.5,0l-62.5,62.5c-8,8-8,20.5,0,28.5l222,222c8,8,14,23,14,34v218
					c0,11,6.5,26.5,14,34l667.5,667.5c8,8,14,23,14,34v299c0,11,6.5,26.5,14,34L5235,2748C5243,2756,5249.5,2753.5,5249.5,2742z
					 M-443,341.5l1127,1127c8,8,14,23,14,34v379c0,11,9,20,20,20h577c11,0,26.5,6.5,34,14l631.5,631.5c8,8,8,20.5,0,28.5l-113,113
					c-8,8-20.5,8-28.5,0l-528-529c-8-8-23-14-34-14h-227c-11,0-20,9-20,20V2532c0,11-9,20-20,20H557.5c-11,0-20,9-20,20v612
					c0,11-9,20-20,20H-437c-11,0-20-9-20-20V347C-457,336-451,333.5-443,341.5z M-266,261.5l1116,1116c8,8,14,23,14,34v334
					c0,11,9,20,20,20h125c11,0,20-9,20-20V1594c0-11,9-20,20-20h201c11,0,26.5,6.5,34,14l530,530c8,8,20.5,8,28.5,0l57-57
					c8-8,8-20.5,0-28.5l-563-562.5c-8-8-23-14-34-14h-179c-11,0-19.5-9-19-20c3-60,10-234.5-1-246C1091,1177.5-121.5-35-267-180.5
					c-8-8-14-5-14,6l1,402C-280,238.5-273.5,253.5-266,261.5z M2140,3142.5L1285,2287c-8-8-23-14-34-14h-130c-11,0-20,9-20,20v142
					c0,11,9,20,20,20h100.5c11,0,20,9,20,20v154.5c0,11-9,20-20,20H811c-11,0-26.5,6.5-34,14l-87.5,87.5c-8,8-14,23-14,34v351.5
					c0,11,9,20,20,20h1439C2145.5,3156.5,2148,3150,2140,3142.5z M2530.5-273.5L3407,603c8,8,20.5,8,28.5,0l34-34c8-8,8-20.5,0-28.5
					l-268-268c-8-8-14-23-14-34v-360c0-11,9-20,20-20h120c11,0,26.5,6.5,34,14l565,565c8,8,20.5,8,28.5,0l40.5-40.5
					c8-8,8-20.5,0-28.5L3864,237c-8-8-14-23-14-34v-88.5c0-11,9-20,20-20h80c11,0,26.5,6.5,34,14l522,522c8,8,8,20.5,0,28.5
					l-87.5,87.5c-8,8-8,20.5,0,28.5l290.5,290.5c8,8,14,23,14,34V1524c0,11,9,20,20,20h486.5c11,0,20-9,20-20V924
					c0-11-6.5-26.5-14-34L4944,598.5c-8-8-23-14-34-14h-142c-11,0-26.5-6.5-34-14l-314-314c-8-8-14-23-14-34v-489c0-11-9-20-20-20
					H2536C2525-288,2522.5-281.5,2530.5-273.5z"/>
				<path class="st15" d="M4571-252v386.5c0,11,6.5,26.5,14,34l225,225c8,8,23,14,34,14h400c11,0,20-9,20-20v-640c0-11-9-20-20-20
					h-653C4580-272,4571-263.5,4571-252z M5264.5,2731v-826.5c0-11-9-20-20-20H4832c-11,0-26.5-6.5-34-14l-186-186c-8-8-14-23-14-34
					V1465c0-11-6.5-26.5-14-34l-185-185c-8-8-14-23-14-34V988.5c0-11-6.5-26.5-14-34l-271-271c-8-8-23-14-34-14h-84.5
					c-11,0-26.5-6.5-34-14L3487,195c-8-8-20.5-8-28.5,0l-62.5,62.5c-8,8-8,20.5,0,28.5l222,222c8,8,14,23,14,34v218.5
					c0,11,6.5,26.5,14,34l667.5,667.5c8,8,14,23,14,34v299c0,11,6.5,26.5,14,34l909.5,909.5C5258,2745,5264.5,2742,5264.5,2731z
					 M-428,330L699,1457c8,8,14,23,14,34v379c0,11,9,20,20,20h577c11,0,26.5,6.5,34,14l631.5,631.5c8,8,8,20.5,0,28.5l-113,113
					c-8,8-20.5,8-28.5,0l-528-528.5c-8-8-23-14-34-14h-227c-11,0-20,9-20,20V2521c0,11-9,20-20,20H572.5c-11,0-20,9-20,20v612
					c0,11-9,20-20,20H-422c-11,0-20-9-20-20V336C-442,325-436,322.5-428,330z M-251,250.5l1116,1116c8,8,14,23,14,34v334
					c0,11,9,20,20,20h125c11,0,20-9,20-20V1583c0-11,9-20,20-20h201c11,0,26.5,6.5,34,14l530,530c8,8,20.5,8,28.5,0l57-57
					c8-8,8-20.5,0-28.5l-563-562.5c-8-8-23-14-34-14h-179c-11,0-19.5-9-19-20c3-60,10-234.5-1-246C1106,1166.5-106.5-46-252-191.5
					c-8-8-14-5-14,6l1,402C-265,227-258.5,242.5-251,250.5z M2155,3131l-855.5-855c-8-8-23-14-34-14h-130c-11,0-20,9-20,20v142
					c0,11,9,20,20,20H1236c11,0,20,9,20,20v154.5c0,11-9,20-20,20H825.5c-11,0-26.5,6.5-34,14L704,2740c-8,8-14,23-14,34v351.5
					c0,11,9,20,20,20h1439C2160,3145.5,2163,3139,2155,3131z M2545.5-284.5L3422,592c8,8,20.5,8,28.5,0l34-34c8-8,8-20.5,0-28.5
					l-268-268c-8-8-14-23-14-34v-360c0-11,9-20,20-20h120c11,0,26.5,6.5,34,14l565,565c8,8,20.5,8,28.5,0l40.5-40.5
					c8-8,8-20.5,0-28.5L3879,226c-8-8-14-23-14-34v-88.5c0-11,9-20,20-20h80c11,0,26.5,6.5,34,14l522,522c8,8,8,20.5,0,28.5
					l-87.5,87c-8,8-8,20.5,0,28.5L4724,1054c8,8,14,23,14,34v424.5c0,11,9,20,20,20h486.5c11,0,20-9,20-20v-600c0-11-6.5-26.5-14-34
					L4959,587c-8-8-23-14-34-14h-142c-11,0-26.5-6.5-34-14l-314-314c-8-8-14-23-14-34v-489c0-11-9-20-20-20H2551
					C2540-299,2537.5-292.5,2545.5-284.5z"/>
			</g>
		</g>
		<g>
			<defs>
				<rect id="SVGID_00000130608820460309948800000007667004245183898253_" width="5000" height="3000"/>
			</defs>
			<clipPath id="SVGID_00000085944825984814654140000008478195106718151562_">
				<use xlink:href="#SVGID_00000130608820460309948800000007667004245183898253_"  style="overflow:visible;"/>
			</clipPath>
			
				<radialGradient id="SVGID_00000168106375669393932530000001865521258181851304_" cx="1566.6665" cy="2976.4436" r="5192.4951" gradientTransform="matrix(1 0 0 -1 0 3002)" gradientUnits="userSpaceOnUse">
				<stop  offset="0" style="stop-color:#2D343F"/>
				<stop  offset="1" style="stop-color:#151A22"/>
			</radialGradient>
			
				<path style="clip-path:url(#SVGID_00000085944825984814654140000008478195106718151562_);fill:url(#SVGID_00000168106375669393932530000001865521258181851304_);" d="
				M-428,330L699,1457c8,8,14,23,14,34v379c0,11,9,20,20,20h577c11,0,26.5,6.5,34,14l631.5,631.5c8,8,8,20.5,0,28.5l-113,113
				c-8,8-20.5,8-28.5,0l-528-528.5c-8-8-23-14-34-14h-227c-11,0-20,9-20,20V2521c0,11-9,20-20,20H572.5c-11,0-20,9-20,20v612
				c0,11-9,20-20,20H-422c-11,0-20-9-20-20V336C-442,325-436,322.5-428,330z M-251,250.5l1116,1116c8,8,14,23,14,34v334
				c0,11,9,20,20,20h125c11,0,20-9,20-20V1583c0-11,9-20,20-20h201c11,0,26.5,6.5,34,14l530,530c8,8,20.5,8,28.5,0l57-57
				c8-8,8-20.5,0-28.5l-563-562.5c-8-8-23-14-34-14h-179c-11,0-19.5-9-19-20c3-60,10-234.5-1-246C1106,1166.5-106.5-46-252-191.5
				c-8-8-14-5-14,6l1,402C-265,227-258.5,242.5-251,250.5z M2155,3131l-855.5-855c-8-8-23-14-34-14h-130c-11,0-20,9-20,20v142
				c0,11,9,20,20,20H1236c11,0,20,9,20,20v154.5c0,11-9,20-20,20H825.5c-11,0-26.5,6.5-34,14L704,2740c-8,8-14,23-14,34v351.5
				c0,11,9,20,20,20h1439C2160,3145.5,2163,3139,2155,3131z M5264.5,2731v-826.5c0-11-9-20-20-20H4832c-11,0-26.5-6.5-34-14
				l-186-186c-8-8-14-23-14-34V1465c0-11-6.5-26.5-14-34l-185-185c-8-8-14-23-14-34V988.5c0-11-6.5-26.5-14-34l-271-271
				c-8-8-23-14-34-14h-84.5c-11,0-26.5-6.5-34-14L3487,195c-8-8-20.5-8-28.5,0l-62.5,62.5c-8,8-8,20.5,0,28.5l222,222
				c8,8,14,23,14,34v218.5c0,11,6.5,26.5,14,34l667.5,667.5c8,8,14,23,14,34v299c0,11,6.5,26.5,14,34l909.5,909.5
				C5258,2745,5264.5,2742,5264.5,2731z M2545.5-284.5L3422,592c8,8,20.5,8,28.5,0l34-34c8-8,8-20.5,0-28.5l-268-268
				c-8-8-14-23-14-34v-360c0-11,9-20,20-20h120c11,0,26.5,6.5,34,14l565,565c8,8,20.5,8,28.5,0l40.5-40.5c8-8,8-20.5,0-28.5
				L3879,226c-8-8-14-23-14-34v-88.5c0-11,9-20,20-20h80c11,0,26.5,6.5,34,14l522,522c8,8,8,20.5,0,28.5l-87.5,87
				c-8,8-8,20.5,0,28.5L4724,1054c8,8,14,23,14,34v424.5c0,11,9,20,20,20h486.5c11,0,20-9,20-20v-600c0-11-6.5-26.5-14-34L4959,587
				c-8-8-23-14-34-14h-142c-11,0-26.5-6.5-34-14l-314-314c-8-8-14-23-14-34v-489c0-11-9-20-20-20H2551
				C2540-299,2537.5-292.5,2545.5-284.5z M4571-252v386.5c0,11,6.5,26.5,14,34l225,225c8,8,23,14,34,14h400c11,0,20-9,20-20v-640
				c0-11-9-20-20-20h-653C4580-272,4571-263.5,4571-252z"/>
		</g>
		<g>
			<defs>
				<rect id="SVGID_00000026870056390246500530000017350700701589312175_" width="5000" height="3000"/>
			</defs>
			<clipPath id="SVGID_00000059293835538532968760000011643174101487230600_">
				<use xlink:href="#SVGID_00000026870056390246500530000017350700701589312175_"  style="overflow:visible;"/>
			</clipPath>
			<g style="clip-path:url(#SVGID_00000059293835538532968760000011643174101487230600_);">
				
					<radialGradient id="SVGID_00000173127706445386328870000016902544790599582376_" cx="2159.2585" cy="2393.3574" r="3337.0901" gradientTransform="matrix(1 0 0 -1 0 3002)" gradientUnits="userSpaceOnUse">
					<stop  offset="0" style="stop-color:#FFFFFF"/>
					<stop  offset="1" style="stop-color:#707A8B"/>
				</radialGradient>
				<path style="fill:url(#SVGID_00000173127706445386328870000016902544790599582376_);" d="M1013.5,2538.5h-417c-3,0-6.5,1-9,2
					h417C1008,2540.5,1011,2540,1013.5,2538.5z"/>
				
					<radialGradient id="SVGID_00000103946943802873795330000004016953666189808022_" cx="2159.2571" cy="2392.7405" r="3336.3049" gradientTransform="matrix(1 0 0 -1 0 3002)" gradientUnits="userSpaceOnUse">
					<stop  offset="0" style="stop-color:#FFFFFF"/>
					<stop  offset="1" style="stop-color:#707A8B"/>
				</radialGradient>
				<path style="fill:url(#SVGID_00000103946943802873795330000004016953666189808022_);" d="M4810.5,393.5c8,8,23,14,34,14h400
					c3.5,0,6.5-1,9-2H4869c-11,0-26.5-6.5-34-14l-225-225c-8-8-14-23-14-34V-254c0-8,4.5-14.5,11-18h-15.5c-11,0-20,9-20,20v386.5
					c0,11,6.5,26.5,14,34L4810.5,393.5z"/>
				
					<radialGradient id="SVGID_00000173849293267730150720000015685414002260782218_" cx="2159.2595" cy="2392.7415" r="3336.3049" gradientTransform="matrix(1 0 0 -1 0 3002)" gradientUnits="userSpaceOnUse">
					<stop  offset="0" style="stop-color:#FFFFFF"/>
					<stop  offset="1" style="stop-color:#707A8B"/>
				</radialGradient>
				<path style="fill:url(#SVGID_00000173849293267730150720000015685414002260782218_);" d="M1080,1563h185.5c11,0,26.5,6.5,34,14
					l530,530c7.5,7.5,20,8,28,0.5c-1-1-2.5-1.5-3.5-2.5l-530-530c-8-8-23-14-34-14h-201C1085.5,1561,1082.5,1561.5,1080,1563z"/>
				
					<radialGradient id="SVGID_00000159450199006463828880000015890284834632264095_" cx="2159.261" cy="2392.741" r="3336.3049" gradientTransform="matrix(1 0 0 -1 0 3002)" gradientUnits="userSpaceOnUse">
					<stop  offset="0" style="stop-color:#FFFFFF"/>
					<stop  offset="1" style="stop-color:#707A8B"/>
				</radialGradient>
				<path style="fill:url(#SVGID_00000159450199006463828880000015890284834632264095_);" d="M4782,1530c-11,0-20-9-20-20v-424.5
					c0-11-6.5-26.5-14-34L4457.5,761c-8-8-8-20.5,0-28.5L4545,645c8-8,8-20.5,0-28.5l-522-521c-8-8-23-14-34-14h-80c-3,0-6.5,1-9,2
					h64.5c11,0,26.5,6.5,34,14l522,522c8,8,8,20.5,0,28.5l-87,87c-8,8-8,20.5,0,28.5L4724,1054c8,8,14,23,14,34v424.5
					c0,11,9,20,20,20h486.5c3.5,0,6.5-1,9-2H4782V1530z"/>
				
					<radialGradient id="SVGID_00000055707123339453410920000015600309373812915846_" cx="2159.259" cy="2392.74" r="3336.3015" gradientTransform="matrix(1 0 0 -1 0 3002)" gradientUnits="userSpaceOnUse">
					<stop  offset="0" style="stop-color:#FFFFFF"/>
					<stop  offset="1" style="stop-color:#707A8B"/>
				</radialGradient>
				<path style="fill:url(#SVGID_00000055707123339453410920000015600309373812915846_);" d="M3969,427.5c-1-1-2.5-1.5-3.5-2.5
					l-565-565c-8-8-23-14-34-14h-120c-3,0-6.5,1-9,2H3342c11,0,26.5,6.5,34,14l565,565C3949,434.5,3961.5,434.5,3969,427.5z"/>
				
					<radialGradient id="SVGID_00000150785410913880736580000006901932662242585493_" cx="2159.259" cy="2392.7424" r="3336.3047" gradientTransform="matrix(1 0 0 -1 0 3002)" gradientUnits="userSpaceOnUse">
					<stop  offset="0" style="stop-color:#FFFFFF"/>
					<stop  offset="1" style="stop-color:#707A8B"/>
				</radialGradient>
				<path style="fill:url(#SVGID_00000150785410913880736580000006901932662242585493_);" d="M1862.5,2677.5c-1-1-2.5-1.5-3.5-2.5
					l-528.5-528.5c-8-8-23-14-34-14h-227c-3,0-6.5,1-9,2H1272c11,0,26.5,6.5,34,14l528.5,528.5C1842,2685,1854.5,2685,1862.5,2677.5
					z"/>
				
					<radialGradient id="SVGID_00000078765512612930098740000014252653598688546986_" cx="2159.2595" cy="2392.7361" r="3336.2979" gradientTransform="matrix(1 0 0 -1 0 3002)" gradientUnits="userSpaceOnUse">
					<stop  offset="0" style="stop-color:#FFFFFF"/>
					<stop  offset="1" style="stop-color:#707A8B"/>
				</radialGradient>
				<path style="fill:url(#SVGID_00000078765512612930098740000014252653598688546986_);" d="M734.5,3143c-11,0-20-9-20-20v-351.5
					c0-11,6.5-26.5,14-34L816,2650c5-5,13-9.5,21-12h-11.5c-11,0-26.5,6.5-34,14l-87.5,88c-8,8-14,23-14,34v351.5c0,11,9,20,20,20
					h1439c4,0,7-1,8.5-2h-1423V3143z"/>
				
					<radialGradient id="SVGID_00000021808324868735701640000005117637482968776352_" cx="2159.26" cy="2392.74" r="3336.3035" gradientTransform="matrix(1 0 0 -1 0 3002)" gradientUnits="userSpaceOnUse">
					<stop  offset="0" style="stop-color:#FFFFFF"/>
					<stop  offset="1" style="stop-color:#707A8B"/>
				</radialGradient>
				<path style="fill:url(#SVGID_00000021808324868735701640000005117637482968776352_);" d="M3446.5,589.5l-877-876.5
					c-5-5-5.5-9.5-2.5-12h-16c-11,0-13.5,6.5-6,14l876.5,876.5c7.5,7.5,20,8,28,0.5C3448.5,591.5,3447.5,590.5,3446.5,589.5z"/>
				
					<radialGradient id="SVGID_00000111158757431671093680000015410308281658454201_" cx="2159.2544" cy="2392.741" r="3336.3047" gradientTransform="matrix(1 0 0 -1 0 3002)" gradientUnits="userSpaceOnUse">
					<stop  offset="0" style="stop-color:#FFFFFF"/>
					<stop  offset="1" style="stop-color:#707A8B"/>
				</radialGradient>
				<path style="fill:url(#SVGID_00000111158757431671093680000015410308281658454201_);" d="M4365.5,1825.5c-8-8-14-23-14-34v-299
					c0-11-6.5-26.5-14-34l-667.5-668c-8-8-14-23-14-34V538c0-11-6.5-26.5-14-34l-222-222c-8-8-8-20.5,0-28.5l62.5-62.5l0.5-0.5
					c-7.5-5-18-4-25,2.5l-62.5,62.5c-8,8-8,20.5,0,28.5l222,222c8,8,14,23,14,34v218.5c0,11,6.5,26.5,14,34L4313,1460
					c8,8,14,23,14,34v299c0,11,6.5,26.5,14,34l909.5,909.5c8,8,14,5,14-6v-6.5L4365.5,1825.5z"/>
				
					<radialGradient id="SVGID_00000088827495909742109690000005645050109598637953_" cx="2159.2605" cy="2392.7405" r="3336.3081" gradientTransform="matrix(1 0 0 -1 0 3002)" gradientUnits="userSpaceOnUse">
					<stop  offset="0" style="stop-color:#FFFFFF"/>
					<stop  offset="1" style="stop-color:#707A8B"/>
				</radialGradient>
				<path style="fill:url(#SVGID_00000088827495909742109690000005645050109598637953_);" d="M-251,250.5l1116,1116c8,8,14,23,14,34
					v334c0,11,9,20,20,20h125c3,0,6.5-1,9-2H923.5c-11,0-20-9-20-20v-334c0-11-6.5-26.5-14-34L-226.5,248c-8-8-14-23-14-34l-1-395
					c-4-4-7.5-7.5-10.5-10.5c-8-8-14-5-14,6l1,402C-265,227-258.5,242.5-251,250.5z"/>
				
					<radialGradient id="SVGID_00000066503787382997785200000017734591595648361623_" cx="2159.2642" cy="2392.741" r="3336.3086" gradientTransform="matrix(1 0 0 -1 0 3002)" gradientUnits="userSpaceOnUse">
					<stop  offset="0" style="stop-color:#FFFFFF"/>
					<stop  offset="1" style="stop-color:#707A8B"/>
				</radialGradient>
				<path style="fill:url(#SVGID_00000066503787382997785200000017734591595648361623_);" d="M-398,3190.5c-11,0-20-9-20-20v-2830
					l-10.5-10.5c-8-8-14-5-14,6v2837c0,11,9,20,20,20H532c3.5,0,6.5-1,9-2h-939V3190.5z"/>
				
					<radialGradient id="SVGID_00000178905978089280835250000011543828560762248355_" cx="2159.2576" cy="2392.7371" r="3336.2991" gradientTransform="matrix(1 0 0 -1 0 3002)" gradientUnits="userSpaceOnUse">
					<stop  offset="0" style="stop-color:#FFFFFF"/>
					<stop  offset="1" style="stop-color:#707A8B"/>
				</radialGradient>
				<path style="fill:url(#SVGID_00000178905978089280835250000011543828560762248355_);" d="M1245,2636h15.5c11,0,20-9,20-20
					v-154.5c0-11-9-20-20-20H1160c-11,0-20-9-20-20v-142c0-8,4.5-14.5,11-18h-15.5c-11,0-20,9-20,20v142c0,11,9,20,20,20H1236
					c11,0,20,9,20,20V2618C1256,2626,1251.5,2633,1245,2636z"/>
			</g>
		</g>
		<g>
			<defs>
				<rect id="SVGID_00000152264752146960976880000014669741818450956184_" width="5000" height="3000"/>
			</defs>
			<clipPath id="SVGID_00000015352724963246420410000009084885990205647541_">
				<use xlink:href="#SVGID_00000152264752146960976880000014669741818450956184_"  style="overflow:visible;"/>
			</clipPath>
			<g style="clip-path:url(#SVGID_00000015352724963246420410000009084885990205647541_);">
				<path class="st31" d="M-548.5,483c-7-7-7-18.5,0-25.5s18.5-7,25.5,0L563.5,1544c3.5,3.5,5.5,8,5.5,12.5v415h712
					c4.5,0,9.5,2,12.5,5.5l524.5,524.5c7,7,7,18.5,0,25.5s-18.5,7-25.5,0L1273,2008H550.5c-4.5,0-9.5-2-12.5-5.5
					c-3.5-3.5-5.5-8-5.5-12.5v-426L-548.5,483L-548.5,483z M163.5,3163.5v-738h687c10,0,18-8,18-18s-8-18-18-18h-705
					c-4.5,0-9.5,2-12.5,5.5c-3.5,3.5-5.5,8-5.5,12.5v756c0,10,8,18,18,18C155.5,3181.5,163.5,3173.5,163.5,3163.5L163.5,3163.5z
					 M2045.5,3207L1425,2586c-7-7-18.5-7-25.5,0c-7,7-7,18.5,0,25.5l620.5,621c7,7,18.5,7,25.5,0S2052.5,3214,2045.5,3207
					 M-329.5-10.5L810,1129c7,7,18.5,7,25.5,0s7-18.5,0-25.5L-304-36c-7-7-18.5-7-25.5,0S-336.5-17.5-329.5-10.5 M5317,2626
					l-833.5-833v-328c0-5-2-9.5-5.5-12.5l-626-627c-7-7-18.5-7-25.5,0c-7,7-7,18.5,0,25.5l621,621v328c0,4.5,2,9.5,5.5,12.5
					l838.5,838.5c7,7,18.5,7,25.5,0C5324,2644.5,5324,2633,5317,2626L5317,2626z M3730-353l962,962l-124.5,124.5c-7,7-7,18.5,0,25.5
					l289.5,289.5v340c0,4.5,2,9.5,5.5,12.5c3.5,3.5,8,5.5,12.5,5.5h310.5c10,0,18-8,18-18s-8-18-18-18H4893V1041c0-5-2-9.5-5.5-12.5
					l-282-282L4730,622c3.5-3.5,5.5-8,5.5-12.5c0-4.5-2-9.5-5.5-12.5l-975-975c-7-7-18.5-7-25.5,0C3723-371.5,3723-360,3730-353
					L3730-353z M3127.5-272v411.5c0,10,8,18,18,18s18-8,18-18V-272c0-10-8-18-18-18S3127.5-282,3127.5-272 M5185.5,298H4885
					l-182.5-182.5c-7-7-18.5-7-25.5,0s-7,18.5,0,25.5l187.5,187.5c3.5,3.5,8,5.5,12.5,5.5h308c10,0,18-8,18-18
					C5203.5,306,5195.5,298,5185.5,298L5185.5,298z"/>
				
					<radialGradient id="SVGID_00000036246425305043374810000016667625177435983488_" cx="1936.6694" cy="2745.332" r="4977.1934" gradientTransform="matrix(1 0 0 -1 0 3002)" gradientUnits="userSpaceOnUse">
					<stop  offset="0" style="stop-color:#85CEFF"/>
					<stop  offset="0.1872" style="stop-color:#0F87EA"/>
					<stop  offset="0.4106" style="stop-color:#0C71C5"/>
					<stop  offset="0.5279" style="stop-color:#0F87EA"/>
					<stop  offset="0.6341" style="stop-color:#85CEFF"/>
					<stop  offset="0.729" style="stop-color:#0C71C5"/>
					<stop  offset="0.8575" style="stop-color:#06447C"/>
					<stop  offset="1" style="stop-color:#032E58"/>
				</radialGradient>
				<path style="fill:url(#SVGID_00000036246425305043374810000016667625177435983488_);" d="M1798,2521.5L1276.5,2000h-726
					c-2.5,0-5-1-7-3s-3-4.5-3-7v-429L-543,477l0,0c-4-4-4-10,0-14c4-4,10-4,14,0L557.5,1549.5c2,2,3,4.5,3,7v423h720c2.5,0,5,1,7,3
					L1812,2507c4,4,4,10,0,14C1808,2525.5,1801.5,2525.5,1798,2521.5z M850.5,2397.5h-705c-2.5,0-5,1-7,3s-3,4.5-3,7v756
					c0,5.5,4.5,10,10,10s10-4.5,10-10l0,0v-746h695c5.5,0,10-4.5,10-10S856.5,2397.5,850.5,2397.5z M1419.5,2592c-4-4-10-4-14,0
					c-4,4-4,10,0,14l620.5,620.5c4,4,10,4,14,0s4-10,0-14L1419.5,2592z M815.5,1123.5c4,4,10,4,14,0c4-4,4-10,0-14L-309.5-30
					c-4-4-10-4-14,0c-4,4-4,10,0,14L815.5,1123.5z M5311,2632L5311,2632l-835.5-836v-331.5c0-2.5-1-5-3-7l-626-626c-4-4-10-4-14,0
					s-4,10,0,14L4456,1469v331.5c0,2.5,1,5,3,7l838.5,838.5c4,4,10,4,14,0C5315,2642,5315,2635.5,5311,2632z M4703.5,609.5l-130,130
					c-4,4-4,10,0,14l292,292V1389c0,2.5,1,5,3,7c2,2,4.5,3,7,3H5186c5.5,0,10-4.5,10-10c0-5.5-4.5-10-10-10h-301v-337.5
					c0-2.5-1-5-3-7L4594.5,747l130-130c2-2,3-4.5,3-7s-1-5-3-7l-975-975c-4-4-10-4-14,0c-4,4-4,10,0,14l0,0L4703.5,609.5z
					 M3145.5-282c-5.5,0-10,4.5-10,10v411.5c0,5.5,4.5,10,10,10c5.5,0,10-4.5,10-10V-272C3155.5-277.5,3151-282,3145.5-282z
					 M4870.5,323c2,2,4.5,3,7,3h308c5.5,0,10-4.5,10-10c0-5.5-4.5-10-10-10l0,0h-304L4697,121.5c-4-4-10-4-14,0s-4,10,0,14
					L4870.5,323z"/>
				
					<radialGradient id="SVGID_00000022536972154633558890000001302543082788221842_" cx="1936.6694" cy="2745.332" r="4977.1934" gradientTransform="matrix(1 0 0 -1 0 3002)" gradientUnits="userSpaceOnUse">
					<stop  offset="0" style="stop-color:#85CEFF"/>
					<stop  offset="0.1872" style="stop-color:#0F87EA"/>
					<stop  offset="0.3659" style="stop-color:#000000"/>
					<stop  offset="0.5559" style="stop-color:#85CEFF"/>
					<stop  offset="0.7961" style="stop-color:#000000"/>
					<stop  offset="1" style="stop-color:#032E58"/>
				</radialGradient>
				<path style="fill:url(#SVGID_00000022536972154633558890000001302543082788221842_);" d="M1798,2521.5L1276.5,2000h-726
					c-2.5,0-5-1-7-3s-3-4.5-3-7v-429L-543,477l0,0c-4-4-4-10,0-14c4-4,10-4,14,0L557.5,1549.5c2,2,3,4.5,3,7v423h720c2.5,0,5,1,7,3
					L1812,2507c4,4,4,10,0,14C1808,2525.5,1801.5,2525.5,1798,2521.5z M850.5,2397.5h-705c-2.5,0-5,1-7,3s-3,4.5-3,7v756
					c0,5.5,4.5,10,10,10s10-4.5,10-10l0,0v-746h695c5.5,0,10-4.5,10-10S856.5,2397.5,850.5,2397.5z M1419.5,2592c-4-4-10-4-14,0
					c-4,4-4,10,0,14l620.5,620.5c4,4,10,4,14,0s4-10,0-14L1419.5,2592z M815.5,1123.5c4,4,10,4,14,0c4-4,4-10,0-14L-309.5-30
					c-4-4-10-4-14,0c-4,4-4,10,0,14L815.5,1123.5z M5311,2632L5311,2632l-835.5-836v-331.5c0-2.5-1-5-3-7l-626-626c-4-4-10-4-14,0
					s-4,10,0,14L4456,1469v331.5c0,2.5,1,5,3,7l838.5,838.5c4,4,10,4,14,0C5315,2642,5315,2635.5,5311,2632z M4703.5,609.5l-130,130
					c-4,4-4,10,0,14l292,292V1389c0,2.5,1,5,3,7c2,2,4.5,3,7,3H5186c5.5,0,10-4.5,10-10c0-5.5-4.5-10-10-10h-301v-337.5
					c0-2.5-1-5-3-7L4594.5,747l130-130c2-2,3-4.5,3-7s-1-5-3-7l-975-975c-4-4-10-4-14,0c-4,4-4,10,0,14l0,0L4703.5,609.5z
					 M3145.5-282c-5.5,0-10,4.5-10,10v411.5c0,5.5,4.5,10,10,10c5.5,0,10-4.5,10-10V-272C3155.5-277.5,3151-282,3145.5-282z
					 M4870.5,323c2,2,4.5,3,7,3h308c5.5,0,10-4.5,10-10c0-5.5-4.5-10-10-10l0,0h-304L4697,121.5c-4-4-10-4-14,0s-4,10,0,14
					L4870.5,323z"/>
			</g>
		</g>
	</g>
</g>
</svg>
