<?xml version="1.0" encoding="utf-8"?>
<!-- Generator: Adobe Illustrator 27.3.1, SVG Export Plug-In . SVG Version: 6.00 Build 0)  -->
<svg version="1.1" xmlns="http://www.w3.org/2000/svg" xmlns:xlink="http://www.w3.org/1999/xlink" x="0px" y="0px"
	 viewBox="0 0 1000 600" style="enable-background:new 0 0 1000 600;" xml:space="preserve">
<style type="text/css">
	.st0{fill:url(#SVGID_1_);}
	.st1{clip-path:url(#SVGID_00000126281529909600179210000007888837142734825901_);}
	.st2{fill:#FFFFFF;}
	.st3{fill:#EDEDED;}
	.st4{fill:#DCDCDC;}
	.st5{fill:#CACACA;}
	.st6{fill:#B8B8B8;}
	.st7{fill:#A7A7A7;}
	.st8{fill:#959595;}
	.st9{fill:#838383;}
	.st10{fill:#717171;}
	.st11{fill:#606060;}
	.st12{fill:#4E4E4E;}
	.st13{fill:#3C3C3C;}
	.st14{fill:#2B2B2B;}
	.st15{fill:#191919;}
	
		.st16{clip-path:url(#SVGID_00000126281529909600179210000007888837142734825901_);fill:url(#SVGID_00000039839729048842888750000011524324617702141368_);}
	.st17{fill:url(#SVGID_00000132061053630970837400000012361955424792480677_);}
	.st18{fill:url(#SVGID_00000175287196196618642080000012977736198664472764_);}
	.st19{fill:url(#SVGID_00000181796989435683747280000001485266696532426647_);}
	.st20{fill:url(#SVGID_00000088103726918487701540000015040670649554729406_);}
	.st21{fill:url(#SVGID_00000157286862230461272120000002562943230104372886_);}
	.st22{fill:url(#SVGID_00000112612845942348548100000007221189096703574181_);}
	.st23{fill:url(#SVGID_00000042017548839391416030000014593741661315971262_);}
	.st24{fill:url(#SVGID_00000061438389849647762550000007424864123282148513_);}
	.st25{fill:url(#SVGID_00000102526704239444026960000003112031671229338815_);}
	.st26{fill:url(#SVGID_00000144300196782374447250000003775931332591118243_);}
	.st27{fill:url(#SVGID_00000127736992486294401420000009283831711118339721_);}
	.st28{fill:url(#SVGID_00000018216429831452952760000008957606803021036928_);}
	.st29{fill:#10141C;}
	.st30{fill:url(#SVGID_00000002353367161333100660000010949969128784848555_);}
	.st31{fill:url(#SVGID_00000003080925596356290240000008621126321267010223_);}
</style>
<g id="BAKCGROUND">
	<radialGradient id="SVGID_1_" cx="479.481" cy="132.5184" r="680.7479" gradientUnits="userSpaceOnUse">
		<stop  offset="0" style="stop-color:#1A1F28"/>
		<stop  offset="1" style="stop-color:#10141C"/>
	</radialGradient>
	<rect class="st0" width="1000" height="600"/>
</g>
<g id="Object">
	<g>
		<defs>
			<rect id="SVGID_00000085245018018614265640000013758778600600634246_" width="1000" height="600"/>
		</defs>
		<clipPath id="SVGID_00000128443175511327272100000000130483801050412682_">
			<use xlink:href="#SVGID_00000085245018018614265640000013758778600600634246_"  style="overflow:visible;"/>
		</clipPath>
		<g style="clip-path:url(#SVGID_00000128443175511327272100000000130483801050412682_);">
			<path class="st2" d="M875.3-21.6v77.3c0,2.2,1.3,5.3,2.8,6.8l45,45c1.6,1.6,4.6,2.8,6.8,2.8h80c2.2,0,4-1.8,4-4v-128
				c0-2.2-1.8-4-4-4H879.3C877.1-25.6,875.3-23.8,875.3-21.6z M1014,575.1V409.8c0-2.2-1.8-4-4-4h-82.5c-2.2,0-5.3-1.3-6.8-2.8
				l-37.2-37.2c-1.6-1.6-2.8-4.6-2.8-6.8v-37.1c0-2.2-1.3-5.3-2.8-6.8l-37-37c-1.6-1.6-2.8-4.6-2.8-6.8v-44.7c0-2.2-1.3-5.3-2.8-6.8
				L781,165.4c-1.6-1.6-4.6-2.8-6.8-2.8h-16.9c-2.2,0-5.3-1.3-6.8-2.8l-92.1-92.1c-1.6-1.6-4.1-1.6-5.7,0l-12.5,12.5
				c-1.6,1.6-1.6,4.1,0,5.7l44.4,44.4c1.6,1.6,2.8,4.6,2.8,6.8v43.7c0,2.2,1.3,5.3,2.8,6.8l133.5,133.5c1.6,1.6,2.8,4.6,2.8,6.8
				v59.8c0,2.2,1.3,5.3,2.8,6.8l181.9,181.9C1012.7,577.8,1014,577.3,1014,575.1z M-124.5,94.9l225.4,225.4c1.6,1.6,2.8,4.6,2.8,6.8
				v75.8c0,2.2,1.8,4,4,4h115.4c2.2,0,5.3,1.3,6.8,2.8l126.3,126.3c1.6,1.6,1.6,4.1,0,5.7l-22.6,22.6c-1.6,1.6-4.1,1.6-5.7,0
				L222.3,458.6c-1.6-1.6-4.6-2.8-6.8-2.8H170c-2.2,0-4,1.8-4,4V533c0,2.2-1.8,4-4,4H75.5c-2.2,0-4,1.8-4,4v122.4c0,2.2-1.8,4-4,4
				h-190.9c-2.2,0-4-1.8-4-4V96.1C-127.3,93.9-126.1,93.4-124.5,94.9z M-89.1,79l223.2,223.2c1.6,1.6,2.8,4.6,2.8,6.8v66.8
				c0,2.2,1.8,4,4,4h25c2.2,0,4-1.8,4-4v-30.3c0-2.2,1.8-4,4-4h40.2c2.2,0,5.3,1.3,6.8,2.8l106,106c1.6,1.6,4.1,1.6,5.7,0l11.4-11.4
				c1.6-1.6,1.6-4.1,0-5.7L231.4,320.6c-1.6-1.6-4.6-2.8-6.8-2.8h-35.8c-2.2,0-3.9-1.8-3.8-4c0.6-12,2-46.9-0.2-49.2
				c-2.5-2.5-245-245-274.1-274.1c-1.6-1.6-2.8-1-2.8,1.2l0.2,80.4C-91.9,74.3-90.6,77.4-89.1,79z M392.1,655.1L221.1,484.1
				c-1.6-1.6-4.6-2.8-6.8-2.8h-26c-2.2,0-4,1.8-4,4v28.4c0,2.2,1.8,4,4,4h20.1c2.2,0,4,1.8,4,4v30.9c0,2.2-1.8,4-4,4h-82.1
				c-2.2,0-5.3,1.3-6.8,2.8l-17.5,17.5c-1.6,1.6-2.8,4.6-2.8,6.8V654c0,2.2,1.8,4,4,4h287.8C393.2,658,393.7,656.7,392.1,655.1z
				 M470.2-28.1l175.3,175.3c1.6,1.6,4.1,1.6,5.7,0l6.8-6.8c1.6-1.6,1.6-4.1,0-5.7l-53.6-53.6c-1.6-1.6-2.8-4.6-2.8-6.8v-72
				c0-2.2,1.8-4,4-4h24c2.2,0,5.3,1.3,6.8,2.8l113,113c1.6,1.6,4.1,1.6,5.7,0l8.1-8.1c1.6-1.6,1.6-4.1,0-5.7l-26.3-26.3
				c-1.6-1.6-2.8-4.6-2.8-6.8V49.6c0-2.2,1.8-4,4-4h16c2.2,0,5.3,1.3,6.8,2.8l104.4,104.4c1.6,1.6,1.6,4.1,0,5.7l-17.5,17.5
				c-1.6,1.6-1.6,4.1,0,5.7l58.1,58.1c1.6,1.6,2.8,4.6,2.8,6.8v84.9c0,2.2,1.8,4,4,4h97.3c2.2,0,4-1.8,4-4v-120
				c0-2.2-1.3-5.3-2.8-6.8l-58.3-58.3c-1.6-1.6-4.6-2.8-6.8-2.8h-28.4c-2.2,0-5.3-1.3-6.8-2.8l-62.8-62.8c-1.6-1.6-2.8-4.6-2.8-6.8
				v-97.8c0-2.2-1.8-4-4-4H471.3C469.1-30.9,468.6-29.6,470.2-28.1z"/>
			<path class="st3" d="M878.3-23.8v77.3c0,2.2,1.3,5.3,2.8,6.8l45,45c1.6,1.6,4.6,2.8,6.8,2.8h80c2.2,0,4-1.8,4-4v-128
				c0-2.2-1.8-4-4-4H882.3C880.1-27.8,878.3-26,878.3-23.8z M1017,572.9V407.5c0-2.2-1.8-4-4-4h-82.5c-2.2,0-5.3-1.3-6.8-2.8
				l-37.2-37.2c-1.6-1.6-2.8-4.6-2.8-6.8v-37.1c0-2.2-1.3-5.3-2.8-6.8l-37-37c-1.6-1.6-2.8-4.6-2.8-6.8v-44.7c0-2.2-1.3-5.3-2.8-6.8
				L784,163.2c-1.6-1.6-4.6-2.8-6.8-2.8h-16.9c-2.2,0-5.3-1.3-6.8-2.8l-92.1-92.1c-1.6-1.6-4.1-1.6-5.7,0l-12.5,12.5
				c-1.6,1.6-1.6,4.1,0,5.7l44.4,44.4c1.6,1.6,2.8,4.6,2.8,6.8v43.7c0,2.2,1.3,5.3,2.8,6.8l133.5,133.5c1.6,1.6,2.8,4.6,2.8,6.8
				v59.8c0,2.2,1.3,5.3,2.8,6.8l181.9,181.9C1015.7,575.6,1017,575.1,1017,572.9z M-121.5,92.7l225.4,225.4c1.6,1.6,2.8,4.6,2.8,6.8
				v75.8c0,2.2,1.8,4,4,4h115.4c2.2,0,5.3,1.3,6.8,2.8l126.3,126.3c1.6,1.6,1.6,4.1,0,5.7l-22.6,22.6c-1.6,1.6-4.1,1.6-5.7,0
				L225.3,456.4c-1.6-1.6-4.6-2.8-6.8-2.8H173c-2.2,0-4,1.8-4,4v73.3c0,2.2-1.8,4-4,4H78.5c-2.2,0-4,1.8-4,4v122.4c0,2.2-1.8,4-4,4
				h-190.9c-2.2,0-4-1.8-4-4V93.9C-124.3,91.7-123.1,91.1-121.5,92.7z M-86.1,76.7L137.2,300c1.6,1.6,2.8,4.6,2.8,6.8v66.8
				c0,2.2,1.8,4,4,4h25c2.2,0,4-1.8,4-4v-30.3c0-2.2,1.8-4,4-4h40.2c2.2,0,5.3,1.3,6.8,2.8l106,106c1.6,1.6,4.1,1.6,5.7,0l11.4-11.4
				c1.6-1.6,1.6-4.1,0-5.7L234.4,318.4c-1.6-1.6-4.6-2.8-6.8-2.8h-35.8c-2.2,0-3.9-1.8-3.8-4c0.6-12,2-46.9-0.2-49.2
				c-2.5-2.5-245-245-274.1-274.1c-1.6-1.6-2.8-1-2.8,1.2l0.2,80.4C-88.9,72.1-87.6,75.2-86.1,76.7z M395.1,652.9L224,481.9
				c-1.6-1.6-4.6-2.8-6.8-2.8h-26c-2.2,0-4,1.8-4,4v28.4c0,2.2,1.8,4,4,4h20.1c2.2,0,4,1.8,4,4v30.9c0,2.2-1.8,4-4,4h-82.1
				c-2.2,0-5.3,1.3-6.8,2.8l-17.5,17.5c-1.6,1.6-2.8,4.6-2.8,6.8v70.3c0,2.2,1.8,4,4,4h287.8C396.1,655.7,396.7,654.5,395.1,652.9z
				 M473.2-30.3L648.5,145c1.6,1.6,4.1,1.6,5.7,0l6.8-6.8c1.6-1.6,1.6-4.1,0-5.7l-53.6-53.6c-1.6-1.6-2.8-4.6-2.8-6.8v-72
				c0-2.2,1.8-4,4-4h24c2.2,0,5.3,1.3,6.8,2.8l113,113c1.6,1.6,4.1,1.6,5.7,0l8.1-8.1c1.6-1.6,1.6-4.1,0-5.7l-26.3-26.3
				c-1.6-1.6-2.8-4.6-2.8-6.8V47.3c0-2.2,1.8-4,4-4h16c2.2,0,5.3,1.3,6.8,2.8l104.4,104.4c1.6,1.6,1.6,4.1,0,5.7l-17.5,17.5
				c-1.6,1.6-1.6,4.1,0,5.7l58.1,58.1c1.6,1.6,2.8,4.6,2.8,6.8v84.9c0,2.2,1.8,4,4,4h97.3c2.2,0,4-1.8,4-4v-120
				c0-2.2-1.3-5.3-2.8-6.8l-58.3-58.3c-1.6-1.6-4.6-2.8-6.8-2.8h-28.4c-2.2,0-5.3-1.3-6.8-2.8l-62.8-62.8c-1.6-1.6-2.8-4.6-2.8-6.8
				v-97.8c0-2.2-1.8-4-4-4H474.3C472.1-33.1,471.6-31.8,473.2-30.3z"/>
			<path class="st4" d="M881.3-26v77.3c0,2.2,1.3,5.3,2.8,6.8l45,45c1.6,1.6,4.6,2.8,6.8,2.8h80c2.2,0,4-1.8,4-4V-26
				c0-2.2-1.8-4-4-4H885.3C883.1-30,881.3-28.2,881.3-26z M1020,570.7V405.3c0-2.2-1.8-4-4-4h-82.5c-2.2,0-5.3-1.3-6.8-2.8
				l-37.2-37.2c-1.6-1.6-2.8-4.6-2.8-6.8v-37.1c0-2.2-1.3-5.3-2.8-6.8l-37-37c-1.6-1.6-2.8-4.6-2.8-6.8V222c0-2.2-1.3-5.3-2.8-6.8
				L787,161c-1.6-1.6-4.6-2.8-6.8-2.8h-16.9c-2.2,0-5.3-1.3-6.8-2.8l-92.1-92.1c-1.6-1.6-4.1-1.6-5.7,0l-12.5,12.5
				c-1.6,1.6-1.6,4.1,0,5.7l44.4,44.4c1.6,1.6,2.8,4.6,2.8,6.8v43.7c0,2.2,1.3,5.3,2.8,6.8l133.5,133.5c1.6,1.6,2.8,4.6,2.8,6.8
				v59.8c0,2.2,1.3,5.3,2.8,6.8l181.9,181.9C1018.7,573.4,1020,572.9,1020,570.7z M-118.5,90.5l225.4,225.4c1.6,1.6,2.8,4.6,2.8,6.8
				v75.8c0,2.2,1.8,4,4,4h115.4c2.2,0,5.3,1.3,6.8,2.8l126.3,126.3c1.6,1.6,1.6,4.1,0,5.7l-22.6,22.6c-1.6,1.6-4.1,1.6-5.7,0
				L228.3,454.1c-1.6-1.6-4.6-2.8-6.8-2.8H176c-2.2,0-4,1.8-4,4v73.3c0,2.2-1.8,4-4,4H81.5c-2.2,0-4,1.8-4,4V659c0,2.2-1.8,4-4,4
				h-190.9c-2.2,0-4-1.8-4-4V91.6C-121.4,89.4-120.1,88.9-118.5,90.5z M-83.1,74.5l223.2,223.2c1.6,1.6,2.8,4.6,2.8,6.8v66.8
				c0,2.2,1.8,4,4,4h25c2.2,0,4-1.8,4-4v-30.3c0-2.2,1.8-4,4-4h40.2c2.2,0,5.3,1.3,6.8,2.8l106,106c1.6,1.6,4.1,1.6,5.7,0l11.4-11.4
				c1.6-1.6,1.6-4.1,0-5.7L237.4,316.2c-1.6-1.6-4.6-2.8-6.8-2.8h-35.8c-2.2,0-3.9-1.8-3.8-4c0.6-12,2-46.9-0.2-49.2
				c-2.5-2.5-245-245-274.1-274.1c-1.6-1.6-2.8-1-2.8,1.2l0.2,80.4C-85.9,69.9-84.6,72.9-83.1,74.5z M398.1,650.7L227,479.6
				c-1.6-1.6-4.6-2.8-6.8-2.8h-26c-2.2,0-4,1.8-4,4v28.4c0,2.2,1.8,4,4,4h20.1c2.2,0,4,1.8,4,4v30.9c0,2.2-1.8,4-4,4h-82.1
				c-2.2,0-5.3,1.3-6.8,2.8l-17.5,17.5c-1.6,1.6-2.8,4.6-2.8,6.8v70.3c0,2.2,1.8,4,4,4h287.8C399.1,653.5,399.7,652.3,398.1,650.7z
				 M476.1-32.5l175.3,175.3c1.6,1.6,4.1,1.6,5.7,0l6.8-6.8c1.6-1.6,1.6-4.1,0-5.7l-53.6-53.6c-1.6-1.6-2.8-4.6-2.8-6.8V-2
				c0-2.2,1.8-4,4-4h24c2.2,0,5.3,1.3,6.8,2.8l113,113c1.6,1.6,4.1,1.6,5.7,0l8.1-8.1c1.6-1.6,1.6-4.1,0-5.7l-26.3-26.3
				c-1.6-1.6-2.8-4.6-2.8-6.8V45.1c0-2.2,1.8-4,4-4h16c2.2,0,5.3,1.3,6.8,2.8l104.4,104.4c1.6,1.6,1.6,4.1,0,5.7l-17.5,17.5
				c-1.6,1.6-1.6,4.1,0,5.7l58.1,58.1c1.6,1.6,2.8,4.6,2.8,6.8v84.9c0,2.2,1.8,4,4,4h97.3c2.2,0,4-1.8,4-4v-120
				c0-2.2-1.3-5.3-2.8-6.8l-58.3-58.3c-1.6-1.6-4.6-2.8-6.8-2.8h-28.4c-2.2,0-5.3-1.3-6.8-2.8l-62.8-62.8c-1.6-1.6-2.8-4.6-2.8-6.8
				v-97.8c0-2.2-1.8-4-4-4H477.3C475.1-35.3,474.6-34.1,476.1-32.5z"/>
			<path class="st5" d="M884.3-28.2v77.3c0,2.2,1.3,5.3,2.8,6.8l45,45c1.6,1.6,4.6,2.8,6.8,2.8h80c2.2,0,4-1.8,4-4v-128
				c0-2.2-1.8-4-4-4H888.3C886.1-32.2,884.3-30.4,884.3-28.2z M1023,568.4V403.1c0-2.2-1.8-4-4-4h-82.5c-2.2,0-5.3-1.3-6.8-2.8
				l-37.2-37.2c-1.6-1.6-2.8-4.6-2.8-6.8v-37.1c0-2.2-1.3-5.3-2.8-6.8l-37-37c-1.6-1.6-2.8-4.6-2.8-6.8v-44.7c0-2.2-1.3-5.3-2.8-6.8
				L790,158.8c-1.6-1.6-4.6-2.8-6.8-2.8h-16.9c-2.2,0-5.3-1.3-6.8-2.8L667.3,61c-1.6-1.6-4.1-1.6-5.7,0l-12.5,12.5
				c-1.6,1.6-1.6,4.1,0,5.7l44.4,44.4c1.6,1.6,2.8,4.6,2.8,6.8V174c0,2.2,1.3,5.3,2.8,6.8l133.5,133.5c1.6,1.6,2.8,4.6,2.8,6.8v59.8
				c0,2.2,1.3,5.3,2.8,6.8l181.9,181.9C1021.7,571.2,1023,570.7,1023,568.4z M-115.5,88.3l225.4,225.4c1.6,1.6,2.8,4.6,2.8,6.8v75.8
				c0,2.2,1.8,4,4,4h115.4c2.2,0,5.3,1.3,6.8,2.8l126.3,126.3c1.6,1.6,1.6,4.1,0,5.7l-22.6,22.6c-1.6,1.6-4.1,1.6-5.7,0L231.3,451.9
				c-1.6-1.6-4.6-2.8-6.8-2.8H179c-2.2,0-4,1.8-4,4v73.3c0,2.2-1.8,4-4,4H84.5c-2.2,0-4,1.8-4,4v122.4c0,2.2-1.8,4-4,4h-190.9
				c-2.2,0-4-1.8-4-4V89.4C-118.4,87.2-117.1,86.7-115.5,88.3z M-80.1,72.3l223.2,223.2c1.6,1.6,2.8,4.6,2.8,6.8v66.8
				c0,2.2,1.8,4,4,4h25c2.2,0,4-1.8,4-4v-30.3c0-2.2,1.8-4,4-4h40.2c2.2,0,5.3,1.3,6.8,2.8l106,106c1.6,1.6,4.1,1.6,5.7,0l11.4-11.4
				c1.6-1.6,1.6-4.1,0-5.7L240.4,314c-1.6-1.6-4.6-2.8-6.8-2.8h-35.8c-2.2,0-3.9-1.8-3.8-4c0.6-12,2-46.9-0.2-49.2
				c-2.5-2.5-245-245-274.1-274.1c-1.6-1.6-2.8-1-2.8,1.2l0.2,80.4C-82.9,67.7-81.7,70.7-80.1,72.3z M401.1,648.5L230,477.4
				c-1.6-1.6-4.6-2.8-6.8-2.8h-26c-2.2,0-4,1.8-4,4V507c0,2.2,1.8,4,4,4h20.1c2.2,0,4,1.8,4,4v30.9c0,2.2-1.8,4-4,4h-82.1
				c-2.2,0-5.3,1.3-6.8,2.8l-17.5,17.5c-1.6,1.6-2.8,4.6-2.8,6.8v70.3c0,2.2,1.8,4,4,4h287.8C402.1,651.3,402.7,650,401.1,648.5z
				 M479.1-34.7l175.3,175.3c1.6,1.6,4.1,1.6,5.7,0l6.8-6.8c1.6-1.6,1.6-4.1,0-5.7l-53.6-53.6c-1.6-1.6-2.8-4.6-2.8-6.8v-72
				c0-2.2,1.8-4,4-4h24c2.2,0,5.3,1.3,6.8,2.8l113,113c1.6,1.6,4.1,1.6,5.7,0l8.1-8.1c1.6-1.6,1.6-4.1,0-5.7l-26.3-26.3
				c-1.6-1.6-2.8-4.6-2.8-6.8V42.9c0-2.2,1.8-4,4-4h16c2.2,0,5.3,1.3,6.8,2.8l104.4,104.4c1.6,1.6,1.6,4.1,0,5.7l-17.5,17.5
				c-1.6,1.6-1.6,4.1,0,5.7l58.1,58.1c1.6,1.6,2.8,4.6,2.8,6.8v84.9c0,2.2,1.8,4,4,4h97.3c2.2,0,4-1.8,4-4v-120
				c0-2.2-1.3-5.3-2.8-6.8l-58.3-58.3c-1.6-1.6-4.6-2.8-6.8-2.8h-28.4c-2.2,0-5.3-1.3-6.8-2.8l-62.8-62.8c-1.6-1.6-2.8-4.6-2.8-6.8
				v-97.8c0-2.2-1.8-4-4-4H480.3C478.1-37.6,477.6-36.3,479.1-34.7z"/>
			<path class="st6" d="M887.3-30.4v77.3c0,2.2,1.3,5.3,2.8,6.8l45,45c1.6,1.6,4.6,2.8,6.8,2.8h80c2.2,0,4-1.8,4-4v-128
				c0-2.2-1.8-4-4-4H891.3C889.1-34.4,887.3-32.7,887.3-30.4z M1026,566.2V400.9c0-2.2-1.8-4-4-4h-82.5c-2.2,0-5.3-1.3-6.8-2.8
				l-37.2-37.2c-1.6-1.6-2.8-4.6-2.8-6.8v-37.1c0-2.2-1.3-5.3-2.8-6.8l-37-37c-1.6-1.6-2.8-4.6-2.8-6.8v-44.7c0-2.2-1.3-5.3-2.8-6.8
				l-54.2-54.2c-1.6-1.6-4.6-2.8-6.8-2.8h-16.9c-2.2,0-5.3-1.3-6.8-2.8l-92.1-92.1c-1.6-1.6-4.1-1.6-5.7,0l-12.5,12.5
				c-1.6,1.6-1.6,4.1,0,5.7l44.4,44.4c1.6,1.6,2.8,4.6,2.8,6.8v43.7c0,2.2,1.3,5.3,2.8,6.8l133.5,133.5c1.6,1.6,2.8,4.6,2.8,6.8
				v59.8c0,2.2,1.3,5.3,2.8,6.8l181.9,181.9C1024.7,569,1026,568.4,1026,566.2z M-112.5,86l225.4,225.4c1.6,1.6,2.8,4.6,2.8,6.8V394
				c0,2.2,1.8,4,4,4h115.4c2.2,0,5.3,1.3,6.8,2.8l126.3,126.3c1.6,1.6,1.6,4.1,0,5.7l-22.6,22.6c-1.6,1.6-4.1,1.6-5.7,0L234.2,449.7
				c-1.6-1.6-4.6-2.8-6.8-2.8H182c-2.2,0-4,1.8-4,4v73.3c0,2.2-1.8,4-4,4H87.5c-2.2,0-4,1.8-4,4v122.4c0,2.2-1.8,4-4,4h-190.9
				c-2.2,0-4-1.8-4-4V87.2C-115.4,85-114.1,84.5-112.5,86z M-77.1,70.1l223.2,223.2c1.6,1.6,2.8,4.6,2.8,6.8v66.8c0,2.2,1.8,4,4,4
				h25c2.2,0,4-1.8,4-4v-30.3c0-2.2,1.8-4,4-4h40.2c2.2,0,5.3,1.3,6.8,2.8l106,106c1.6,1.6,4.1,1.6,5.7,0l11.4-11.4
				c1.6-1.6,1.6-4.1,0-5.7L243.4,311.8c-1.6-1.6-4.6-2.8-6.8-2.8h-35.8c-2.2,0-3.9-1.8-3.8-4c0.6-12,2-46.9-0.2-49.2
				c-2.5-2.5-245-245-274.1-274.1c-1.6-1.6-2.8-1-2.8,1.2l0.2,80.4C-79.9,65.4-78.7,68.5-77.1,70.1z M404.1,646.2L233,475.2
				c-1.6-1.6-4.6-2.8-6.8-2.8h-26c-2.2,0-4,1.8-4,4v28.4c0,2.2,1.8,4,4,4h20.1c2.2,0,4,1.8,4,4v30.9c0,2.2-1.8,4-4,4h-82.1
				c-2.2,0-5.3,1.3-6.8,2.8L113.9,568c-1.6,1.6-2.8,4.6-2.8,6.8v70.3c0,2.2,1.8,4,4,4h287.8C405.1,649.1,405.6,647.8,404.1,646.2z
				 M482.1-36.9l175.3,175.3c1.6,1.6,4.1,1.6,5.7,0l6.8-6.8c1.6-1.6,1.6-4.1,0-5.7l-53.6-53.6c-1.6-1.6-2.8-4.6-2.8-6.8v-72
				c0-2.2,1.8-4,4-4h24c2.2,0,5.3,1.3,6.8,2.8l113,113c1.6,1.6,4.1,1.6,5.7,0l8.1-8.1c1.6-1.6,1.6-4.1,0-5.7l-26.3-26.3
				c-1.6-1.6-2.8-4.6-2.8-6.8V40.7c0-2.2,1.8-4,4-4h16c2.2,0,5.3,1.3,6.8,2.8l104.4,104.4c1.6,1.6,1.6,4.1,0,5.7L859.7,167
				c-1.6,1.6-1.6,4.1,0,5.7l58.1,58.1c1.6,1.6,2.8,4.6,2.8,6.8v84.9c0,2.2,1.8,4,4,4h97.3c2.2,0,4-1.8,4-4v-120
				c0-2.2-1.3-5.3-2.8-6.8l-58.3-58.3c-1.6-1.6-4.6-2.8-6.8-2.8h-28.4c-2.2,0-5.3-1.3-6.8-2.8l-62.8-62.8c-1.6-1.6-2.8-4.6-2.8-6.8
				v-97.8c0-2.2-1.8-4-4-4H483.3C481.1-39.8,480.6-38.5,482.1-36.9z"/>
			<path class="st7" d="M890.3-32.7v77.3c0,2.2,1.3,5.3,2.8,6.8l45,45c1.6,1.6,4.6,2.8,6.8,2.8h80c2.2,0,4-1.8,4-4v-128
				c0-2.2-1.8-4-4-4H894.3C892.1-36.7,890.3-34.9,890.3-32.7z M1029,564V398.7c0-2.2-1.8-4-4-4h-82.5c-2.2,0-5.3-1.3-6.8-2.8
				l-37.2-37.2c-1.6-1.6-2.8-4.6-2.8-6.8v-37.1c0-2.2-1.3-5.3-2.8-6.8l-37-37c-1.6-1.6-2.8-4.6-2.8-6.8v-44.7c0-2.2-1.3-5.3-2.8-6.8
				l-54.2-54.2c-1.6-1.6-4.6-2.8-6.8-2.8h-16.9c-2.2,0-5.3-1.3-6.8-2.8l-92.1-92.1c-1.6-1.6-4.1-1.6-5.7,0L655.1,69
				c-1.6,1.6-1.6,4.1,0,5.7l44.4,44.4c1.6,1.6,2.8,4.6,2.8,6.8v43.7c0,2.2,1.3,5.3,2.8,6.8l133.5,133.5c1.6,1.6,2.8,4.6,2.8,6.8
				v59.8c0,2.2,1.3,5.3,2.8,6.8l181.9,181.9C1027.7,566.7,1029,566.2,1029,564z M-109.5,83.8l225.4,225.4c1.6,1.6,2.8,4.6,2.8,6.8
				v75.8c0,2.2,1.8,4,4,4H238c2.2,0,5.3,1.3,6.8,2.8L371.2,525c1.6,1.6,1.6,4.1,0,5.7l-22.6,22.6c-1.6,1.6-4.1,1.6-5.7,0
				L237.2,447.5c-1.6-1.6-4.6-2.8-6.8-2.8H185c-2.2,0-4,1.8-4,4v73.3c0,2.2-1.8,4-4,4H90.5c-2.2,0-4,1.8-4,4v122.4c0,2.2-1.8,4-4,4
				h-190.9c-2.2,0-4-1.8-4-4V85C-112.4,82.8-111.1,82.2-109.5,83.8z M-74.1,67.8l223.2,223.2c1.6,1.6,2.8,4.6,2.8,6.8v66.8
				c0,2.2,1.8,4,4,4h25c2.2,0,4-1.8,4-4v-30.3c0-2.2,1.8-4,4-4h40.2c2.2,0,5.3,1.3,6.8,2.8l106,106c1.6,1.6,4.1,1.6,5.7,0l11.4-11.4
				c1.6-1.6,1.6-4.1,0-5.7L246.4,309.5c-1.6-1.6-4.6-2.8-6.8-2.8h-35.8c-2.2,0-3.9-1.8-3.8-4c0.6-12,2-46.9-0.2-49.2
				c-2.5-2.5-245-245-274.1-274.1c-1.6-1.6-2.8-1-2.8,1.2l0.2,80.4C-76.9,63.2-75.7,66.3-74.1,67.8z M407.1,644L236,473
				c-1.6-1.6-4.6-2.8-6.8-2.8h-26c-2.2,0-4,1.8-4,4v28.4c0,2.2,1.8,4,4,4h20.1c2.2,0,4,1.8,4,4v30.9c0,2.2-1.8,4-4,4h-82.1
				c-2.2,0-5.3,1.3-6.8,2.8l-17.5,17.5c-1.6,1.6-2.8,4.6-2.8,6.8v70.3c0,2.2,1.8,4,4,4h287.8C408.1,646.9,408.6,645.6,407.1,644z
				 M485.1-39.2l175.3,175.3c1.6,1.6,4.1,1.6,5.7,0l6.8-6.8c1.6-1.6,1.6-4.1,0-5.7l-53.6-53.6c-1.6-1.6-2.8-4.6-2.8-6.8v-72
				c0-2.2,1.8-4,4-4h24c2.2,0,5.3,1.3,6.8,2.8l113,113c1.6,1.6,4.1,1.6,5.7,0l8.1-8.1c1.6-1.6,1.6-4.1,0-5.7l-26.3-26.3
				c-1.6-1.6-2.8-4.6-2.8-6.8V38.4c0-2.2,1.8-4,4-4h16c2.2,0,5.3,1.3,6.8,2.8l104.4,104.4c1.6,1.6,1.6,4.1,0,5.7l-17.5,17.5
				c-1.6,1.6-1.6,4.1,0,5.7l58.1,58.1c1.6,1.6,2.8,4.6,2.8,6.8v84.9c0,2.2,1.8,4,4,4h97.3c2.2,0,4-1.8,4-4v-120
				c0-2.2-1.3-5.3-2.8-6.8l-58.3-58.3c-1.6-1.6-4.6-2.8-6.8-2.8h-28.4c-2.2,0-5.3-1.3-6.8-2.8l-62.8-62.8c-1.6-1.6-2.8-4.6-2.8-6.8
				V-38c0-2.2-1.8-4-4-4H486.3C484.1-42,483.6-40.7,485.1-39.2z"/>
			<path class="st8" d="M893.3-34.9v77.3c0,2.2,1.3,5.3,2.8,6.8l45,45c1.6,1.6,4.6,2.8,6.8,2.8h80c2.2,0,4-1.8,4-4v-128
				c0-2.2-1.8-4-4-4H897.3C895.1-38.9,893.3-37.1,893.3-34.9z M1031.9,561.8V396.4c0-2.2-1.8-4-4-4h-82.5c-2.2,0-5.3-1.3-6.8-2.8
				l-37.2-37.2c-1.6-1.6-2.8-4.6-2.8-6.8v-37.1c0-2.2-1.3-5.3-2.8-6.8l-37-37c-1.6-1.6-2.8-4.6-2.8-6.8v-44.7c0-2.2-1.3-5.3-2.8-6.8
				l-54.2-54.2c-1.6-1.6-4.6-2.8-6.8-2.8h-16.9c-2.2,0-5.3-1.3-6.8-2.8l-92.1-92.1c-1.6-1.6-4.1-1.6-5.7,0l-12.5,12.5
				c-1.6,1.6-1.6,4.1,0,5.7l44.4,44.4c1.6,1.6,2.8,4.6,2.8,6.8v43.7c0,2.2,1.3,5.3,2.8,6.8l133.5,133.5c1.6,1.6,2.8,4.6,2.8,6.8
				v59.8c0,2.2,1.3,5.3,2.8,6.8l181.9,181.9C1030.7,564.5,1031.9,564,1031.9,561.8z M-106.6,81.6L118.8,307c1.6,1.6,2.8,4.6,2.8,6.8
				v75.8c0,2.2,1.8,4,4,4H241c2.2,0,5.3,1.3,6.8,2.8l126.3,126.3c1.6,1.6,1.6,4.1,0,5.7L351.6,551c-1.6,1.6-4.1,1.6-5.7,0
				L240.2,445.3c-1.6-1.6-4.6-2.8-6.8-2.8H188c-2.2,0-4,1.8-4,4v73.3c0,2.2-1.8,4-4,4H93.5c-2.2,0-4,1.8-4,4v122.4c0,2.2-1.8,4-4,4
				h-190.9c-2.2,0-4-1.8-4-4V82.8C-109.4,80.5-108.1,80-106.6,81.6z M-71.1,65.6l223.2,223.2c1.6,1.6,2.8,4.6,2.8,6.8v66.8
				c0,2.2,1.8,4,4,4h25c2.2,0,4-1.8,4-4v-30.3c0-2.2,1.8-4,4-4h40.2c2.2,0,5.3,1.3,6.8,2.8l106,106c1.6,1.6,4.1,1.6,5.7,0l11.4-11.4
				c1.6-1.6,1.6-4.1,0-5.7L249.3,307.3c-1.6-1.6-4.6-2.8-6.8-2.8h-35.8c-2.2,0-3.9-1.8-3.8-4c0.6-12,2-46.9-0.2-49.2
				c-2.5-2.5-245-245-274.1-274.1c-1.6-1.6-2.8-1-2.8,1.2l0.2,80.4C-73.9,61-72.7,64.1-71.1,65.6z M410.1,641.8L239,470.7
				c-1.6-1.6-4.6-2.8-6.8-2.8h-26c-2.2,0-4,1.8-4,4v28.4c0,2.2,1.8,4,4,4h20.1c2.2,0,4,1.8,4,4v30.9c0,2.2-1.8,4-4,4h-82.1
				c-2.2,0-5.3,1.3-6.8,2.8l-17.5,17.5c-1.6,1.6-2.8,4.6-2.8,6.8v70.3c0,2.2,1.8,4,4,4h287.8C411.1,644.6,411.6,643.4,410.1,641.8z
				 M488.1-41.4l175.3,175.3c1.6,1.6,4.1,1.6,5.7,0l6.8-6.8c1.6-1.6,1.6-4.1,0-5.7l-53.6-53.6c-1.6-1.6-2.8-4.6-2.8-6.8v-72
				c0-2.2,1.8-4,4-4h24c2.2,0,5.3,1.3,6.8,2.8l113,113c1.6,1.6,4.1,1.6,5.7,0l8.1-8.1c1.6-1.6,1.6-4.1,0-5.7l-26.3-26.3
				c-1.6-1.6-2.8-4.6-2.8-6.8V36.2c0-2.2,1.8-4,4-4h16c2.2,0,5.3,1.3,6.8,2.8l104.4,104.4c1.6,1.6,1.6,4.1,0,5.7l-17.5,17.5
				c-1.6,1.6-1.6,4.1,0,5.7l58.1,58.1c1.6,1.6,2.8,4.6,2.8,6.8V318c0,2.2,1.8,4,4,4h97.3c2.2,0,4-1.8,4-4V198c0-2.2-1.3-5.3-2.8-6.8
				l-58.3-58.3c-1.6-1.6-4.6-2.8-6.8-2.8h-28.4c-2.2,0-5.3-1.3-6.8-2.8l-62.8-62.8c-1.6-1.6-2.8-4.6-2.8-6.8v-97.8c0-2.2-1.8-4-4-4
				H489.3C487.1-44.2,486.5-43,488.1-41.4z"/>
			<path class="st9" d="M896.3-37.1v77.3c0,2.2,1.3,5.3,2.8,6.8l45,45c1.6,1.6,4.6,2.8,6.8,2.8h80c2.2,0,4-1.8,4-4v-128
				c0-2.2-1.8-4-4-4H900.3C898.1-41.1,896.3-39.3,896.3-37.1z M1034.9,559.6V394.2c0-2.2-1.8-4-4-4h-82.5c-2.2,0-5.3-1.3-6.8-2.8
				l-37.2-37.2c-1.6-1.6-2.8-4.6-2.8-6.8v-37.1c0-2.2-1.3-5.3-2.8-6.8l-37-37c-1.6-1.6-2.8-4.6-2.8-6.8v-44.7c0-2.2-1.3-5.3-2.8-6.8
				l-54.2-54.2c-1.6-1.6-4.6-2.8-6.8-2.8h-16.9c-2.2,0-5.3-1.3-6.8-2.8l-92.1-92.1c-1.6-1.6-4.1-1.6-5.7,0l-12.5,12.5
				c-1.6,1.6-1.6,4.1,0,5.7l44.4,44.4c1.6,1.6,2.8,4.6,2.8,6.8v43.7c0,2.2,1.3,5.3,2.8,6.8l133.5,133.5c1.6,1.6,2.8,4.6,2.8,6.8V372
				c0,2.2,1.3,5.3,2.8,6.8l181.9,181.9C1033.7,562.3,1034.9,561.8,1034.9,559.6z M-103.6,79.4l225.4,225.4c1.6,1.6,2.8,4.6,2.8,6.8
				v75.8c0,2.2,1.8,4,4,4H244c2.2,0,5.3,1.3,6.8,2.8l126.3,126.3c1.6,1.6,1.6,4.1,0,5.7l-22.6,22.6c-1.6,1.6-4.1,1.6-5.7,0
				L243.2,443c-1.6-1.6-4.6-2.8-6.8-2.8H191c-2.2,0-4,1.8-4,4v73.3c0,2.2-1.8,4-4,4H96.5c-2.2,0-4,1.8-4,4v122.4c0,2.2-1.8,4-4,4
				h-190.9c-2.2,0-4-1.8-4-4V80.5C-106.4,78.3-105.1,77.8-103.6,79.4z M-68.1,63.4l223.2,223.2c1.6,1.6,2.8,4.6,2.8,6.8v66.8
				c0,2.2,1.8,4,4,4h25c2.2,0,4-1.8,4-4V330c0-2.2,1.8-4,4-4h40.2c2.2,0,5.3,1.3,6.8,2.8l106,106c1.6,1.6,4.1,1.6,5.7,0l11.4-11.4
				c1.6-1.6,1.6-4.1,0-5.7L252.3,305.1c-1.6-1.6-4.6-2.8-6.8-2.8h-35.8c-2.2,0-3.9-1.8-3.8-4c0.6-12,2-46.9-0.2-49.2
				c-2.5-2.5-245-245-274.1-274.1c-1.6-1.6-2.8-1-2.8,1.2l0.2,80.4C-71,58.8-69.7,61.8-68.1,63.4z M413.1,639.6L242,468.5
				c-1.6-1.6-4.6-2.8-6.8-2.8h-26c-2.2,0-4,1.8-4,4v28.4c0,2.2,1.8,4,4,4h20.1c2.2,0,4,1.8,4,4V537c0,2.2-1.8,4-4,4h-82.1
				c-2.2,0-5.3,1.3-6.8,2.8l-17.5,17.5c-1.6,1.6-2.8,4.6-2.8,6.8v70.3c0,2.2,1.8,4,4,4h287.8C414.1,642.4,414.6,641.1,413.1,639.6z
				 M491.1-43.6l175.3,175.3c1.6,1.6,4.1,1.6,5.7,0l6.8-6.8c1.6-1.6,1.6-4.1,0-5.7l-53.6-53.6c-1.6-1.6-2.8-4.6-2.8-6.8v-72
				c0-2.2,1.8-4,4-4h24c2.2,0,5.3,1.3,6.8,2.8l113,113c1.6,1.6,4.1,1.6,5.7,0l8.1-8.1c1.6-1.6,1.6-4.1,0-5.7l-26.3-26.3
				c-1.6-1.6-2.8-4.6-2.8-6.8V34c0-2.2,1.8-4,4-4h16c2.2,0,5.3,1.3,6.8,2.8l104.4,104.4c1.6,1.6,1.6,4.1,0,5.7l-17.5,17.5
				c-1.6,1.6-1.6,4.1,0,5.7l58.1,58.1c1.6,1.6,2.8,4.6,2.8,6.8v84.9c0,2.2,1.8,4,4,4h97.3c2.2,0,4-1.8,4-4v-120
				c0-2.2-1.3-5.3-2.8-6.8l-58.3-58.3c-1.6-1.6-4.6-2.8-6.8-2.8h-28.4c-2.2,0-5.3-1.3-6.8-2.8l-62.8-62.8c-1.6-1.6-2.8-4.6-2.8-6.8
				v-97.8c0-2.2-1.8-4-4-4H492.3C490.1-46.4,489.5-45.2,491.1-43.6z"/>
			<path class="st10" d="M899.3-39.3V38c0,2.2,1.3,5.3,2.8,6.8l45,45c1.6,1.6,4.6,2.8,6.8,2.8h80c2.2,0,4-1.8,4-4v-128
				c0-2.2-1.8-4-4-4H903.3C901.1-43.3,899.3-41.5,899.3-39.3z M1037.9,557.3V392c0-2.2-1.8-4-4-4h-82.5c-2.2,0-5.3-1.3-6.8-2.8
				l-37.2-37.2c-1.6-1.6-2.8-4.6-2.8-6.8v-37.1c0-2.2-1.3-5.3-2.8-6.8l-37-37c-1.6-1.6-2.8-4.6-2.8-6.8v-44.7c0-2.2-1.3-5.3-2.8-6.8
				l-54.2-54.2c-1.6-1.6-4.6-2.8-6.8-2.8h-16.9c-2.2,0-5.3-1.3-6.8-2.8l-92.1-92.1c-1.6-1.6-4.1-1.6-5.7,0l-12.5,12.5
				c-1.6,1.6-1.6,4.1,0,5.7l44.4,44.4c1.6,1.6,2.8,4.6,2.8,6.8v43.7c0,2.2,1.3,5.3,2.8,6.8l133.5,133.5c1.6,1.6,2.8,4.6,2.8,6.8
				v59.8c0,2.2,1.3,5.3,2.8,6.8l181.9,181.9C1036.7,560.1,1037.9,559.5,1037.9,557.3z M-100.6,77.1l225.4,225.4
				c1.6,1.6,2.8,4.6,2.8,6.8v75.8c0,2.2,1.8,4,4,4H247c2.2,0,5.3,1.3,6.8,2.8l126.3,126.3c1.6,1.6,1.6,4.1,0,5.7l-22.6,22.6
				c-1.6,1.6-4.1,1.6-5.7,0L246.2,440.8c-1.6-1.6-4.6-2.8-6.8-2.8H194c-2.2,0-4,1.8-4,4v73.3c0,2.2-1.8,4-4,4H99.5c-2.2,0-4,1.8-4,4
				v122.4c0,2.2-1.8,4-4,4H-99.4c-2.2,0-4-1.8-4-4V78.3C-103.4,76.1-102.1,75.6-100.6,77.1z M-65.1,61.2l223.2,223.2
				c1.6,1.6,2.8,4.6,2.8,6.8V358c0,2.2,1.8,4,4,4h25c2.2,0,4-1.8,4-4v-30.3c0-2.2,1.8-4,4-4h40.2c2.2,0,5.3,1.3,6.8,2.8l106,106
				c1.6,1.6,4.1,1.6,5.7,0l11.4-11.4c1.6-1.6,1.6-4.1,0-5.7L255.3,302.9c-1.6-1.6-4.6-2.8-6.8-2.8h-35.8c-2.2,0-3.9-1.8-3.8-4
				c0.6-12,2-46.9-0.2-49.2c-2.5-2.5-245-245-274.1-274.1c-1.6-1.6-2.8-1-2.8,1.2l0.2,80.4C-68,56.6-66.7,59.6-65.1,61.2z
				 M416,637.4L245,466.3c-1.6-1.6-4.6-2.8-6.8-2.8h-26c-2.2,0-4,1.8-4,4v28.4c0,2.2,1.8,4,4,4h20.1c2.2,0,4,1.8,4,4v30.9
				c0,2.2-1.8,4-4,4h-82.1c-2.2,0-5.3,1.3-6.8,2.8l-17.5,17.5c-1.6,1.6-2.8,4.6-2.8,6.8v70.3c0,2.2,1.8,4,4,4h287.8
				C417.1,640.2,417.6,638.9,416,637.4z M494.1-45.8l175.3,175.3c1.6,1.6,4.1,1.6,5.7,0l6.8-6.8c1.6-1.6,1.6-4.1,0-5.7l-53.6-53.6
				c-1.6-1.6-2.8-4.6-2.8-6.8v-72c0-2.2,1.8-4,4-4h24c2.2,0,5.3,1.3,6.8,2.8l113,113c1.6,1.6,4.1,1.6,5.7,0l8.1-8.1
				c1.6-1.6,1.6-4.1,0-5.7l-26.3-26.3c-1.6-1.6-2.8-4.6-2.8-6.8V31.8c0-2.2,1.8-4,4-4h16c2.2,0,5.3,1.3,6.8,2.8L889.2,135
				c1.6,1.6,1.6,4.1,0,5.7l-17.5,17.5c-1.6,1.6-1.6,4.1,0,5.7l58.1,58.1c1.6,1.6,2.8,4.6,2.8,6.8v84.9c0,2.2,1.8,4,4,4h97.3
				c2.2,0,4-1.8,4-4v-120c0-2.2-1.3-5.3-2.8-6.8l-58.3-58.3c-1.6-1.6-4.6-2.8-6.8-2.8h-28.4c-2.2,0-5.3-1.3-6.8-2.8l-62.8-62.8
				c-1.6-1.6-2.8-4.6-2.8-6.8v-97.8c0-2.2-1.8-4-4-4H495.3C493.1-48.7,492.5-47.4,494.1-45.8z"/>
			<path class="st11" d="M902.3-41.6v77.3c0,2.2,1.3,5.3,2.8,6.8l45,45c1.6,1.6,4.6,2.8,6.8,2.8h80c2.2,0,4-1.8,4-4v-128
				c0-2.2-1.8-4-4-4H906.3C904-45.6,902.3-43.8,902.3-41.6z M1040.9,555.1V389.8c0-2.2-1.8-4-4-4h-82.5c-2.2,0-5.3-1.3-6.8-2.8
				l-37.2-37.2c-1.6-1.6-2.8-4.6-2.8-6.8v-37.1c0-2.2-1.3-5.3-2.8-6.8l-37-37c-1.6-1.6-2.8-4.6-2.8-6.8v-44.7c0-2.2-1.3-5.3-2.8-6.8
				l-54.2-54.2c-1.6-1.6-4.6-2.8-6.8-2.8h-16.9c-2.2,0-5.3-1.3-6.8-2.8l-92.1-92.1c-1.6-1.6-4.1-1.6-5.7,0l-12.5,12.5
				c-1.6,1.6-1.6,4.1,0,5.7l44.4,44.4c1.6,1.6,2.8,4.6,2.8,6.8v43.7c0,2.2,1.3,5.3,2.8,6.8l133.5,133.5c1.6,1.6,2.8,4.6,2.8,6.8
				v59.8c0,2.2,1.3,5.3,2.8,6.8l181.9,181.9C1039.7,557.8,1040.9,557.3,1040.9,555.1z M-97.6,74.9l225.4,225.4
				c1.6,1.6,2.8,4.6,2.8,6.8v75.8c0,2.2,1.8,4,4,4H250c2.2,0,5.3,1.3,6.8,2.8l126.3,126.3c1.6,1.6,1.6,4.1,0,5.7l-22.6,22.6
				c-1.6,1.6-4.1,1.6-5.7,0L249.2,438.6c-1.6-1.6-4.6-2.8-6.8-2.8H197c-2.2,0-4,1.8-4,4V513c0,2.2-1.8,4-4,4h-86.5c-2.2,0-4,1.8-4,4
				v122.4c0,2.2-1.8,4-4,4H-96.4c-2.2,0-4-1.8-4-4V76.1C-100.4,73.9-99.1,73.4-97.6,74.9z M-62.1,59l223.2,223.2
				c1.6,1.6,2.8,4.6,2.8,6.8v66.8c0,2.2,1.8,4,4,4h25c2.2,0,4-1.8,4-4v-30.3c0-2.2,1.8-4,4-4h40.2c2.2,0,5.3,1.3,6.8,2.8l106,106
				c1.6,1.6,4.1,1.6,5.7,0L371,419c1.6-1.6,1.6-4.1,0-5.7L258.3,300.6c-1.6-1.6-4.6-2.8-6.8-2.8h-35.8c-2.2,0-3.9-1.8-3.8-4
				c0.6-12,2-46.9-0.2-49.2c-2.5-2.5-245-245-274.1-274.1c-1.6-1.6-2.8-1-2.8,1.2l0.2,80.4C-65,54.3-63.7,57.4-62.1,59z M419,635.1
				L248,464.1c-1.6-1.6-4.6-2.8-6.8-2.8h-26c-2.2,0-4,1.8-4,4v28.4c0,2.2,1.8,4,4,4h20.1c2.2,0,4,1.8,4,4v30.9c0,2.2-1.8,4-4,4
				h-82.1c-2.2,0-5.3,1.3-6.8,2.8l-17.5,17.5c-1.6,1.6-2.8,4.6-2.8,6.8V634c0,2.2,1.8,4,4,4h287.8C420.1,638,420.6,636.7,419,635.1z
				 M497.1-48.1l175.3,175.3c1.6,1.6,4.1,1.6,5.7,0l6.8-6.8c1.6-1.6,1.6-4.1,0-5.7l-53.6-53.6c-1.6-1.6-2.8-4.6-2.8-6.8v-72
				c0-2.2,1.8-4,4-4h24c2.2,0,5.3,1.3,6.8,2.8l113,113c1.6,1.6,4.1,1.6,5.7,0l8.1-8.1c1.6-1.6,1.6-4.1,0-5.7l-26.3-26.3
				c-1.6-1.6-2.8-4.6-2.8-6.8V29.6c0-2.2,1.8-4,4-4h16c2.2,0,5.3,1.3,6.8,2.8l104.4,104.4c1.6,1.6,1.6,4.1,0,5.7l-17.5,17.5
				c-1.6,1.6-1.6,4.1,0,5.7l58.1,58.1c1.6,1.6,2.8,4.6,2.8,6.8v84.9c0,2.2,1.8,4,4,4h97.3c2.2,0,4-1.8,4-4v-120
				c0-2.2-1.3-5.3-2.8-6.8l-58.3-58.3c-1.6-1.6-4.6-2.8-6.8-2.8h-28.4c-2.2,0-5.3-1.3-6.8-2.8l-62.8-62.8c-1.6-1.6-2.8-4.6-2.8-6.8
				v-97.8c0-2.2-1.8-4-4-4H498.3C496-50.9,495.5-49.6,497.1-48.1z"/>
			<path class="st12" d="M905.2-43.8v77.3c0,2.2,1.3,5.3,2.8,6.8l45,45c1.6,1.6,4.6,2.8,6.8,2.8h80c2.2,0,4-1.8,4-4v-128
				c0-2.2-1.8-4-4-4H909.2C907-47.8,905.2-46,905.2-43.8z M1043.9,552.9V387.5c0-2.2-1.8-4-4-4h-82.5c-2.2,0-5.3-1.3-6.8-2.8
				l-37.2-37.2c-1.6-1.6-2.8-4.6-2.8-6.8v-37.1c0-2.2-1.3-5.3-2.8-6.8l-37-37c-1.6-1.6-2.8-4.6-2.8-6.8v-44.7c0-2.2-1.3-5.3-2.8-6.8
				l-54.2-54.2c-1.6-1.6-4.6-2.8-6.8-2.8h-16.9c-2.2,0-5.3-1.3-6.8-2.8l-92.1-92.1c-1.6-1.6-4.1-1.6-5.7,0l-12.5,12.5
				c-1.6,1.6-1.6,4.1,0,5.7l44.4,44.4c1.6,1.6,2.8,4.6,2.8,6.8v43.7c0,2.2,1.3,5.3,2.8,6.8l133.5,133.5c1.6,1.6,2.8,4.6,2.8,6.8
				v59.8c0,2.2,1.3,5.3,2.8,6.8l181.9,181.9C1042.6,555.6,1043.9,555.1,1043.9,552.9z M-94.6,72.7l225.4,225.4
				c1.6,1.6,2.8,4.6,2.8,6.8v75.8c0,2.2,1.8,4,4,4H253c2.2,0,5.3,1.3,6.8,2.8l126.3,126.3c1.6,1.6,1.6,4.1,0,5.7l-22.6,22.6
				c-1.6,1.6-4.1,1.6-5.7,0L252.2,436.4c-1.6-1.6-4.6-2.8-6.8-2.8H200c-2.2,0-4,1.8-4,4v73.3c0,2.2-1.8,4-4,4h-86.5
				c-2.2,0-4,1.8-4,4v122.4c0,2.2-1.8,4-4,4H-93.4c-2.2,0-4-1.8-4-4V73.9C-97.4,71.7-96.2,71.1-94.6,72.7z M-59.1,56.7L164.1,280
				c1.6,1.6,2.8,4.6,2.8,6.8v66.8c0,2.2,1.8,4,4,4h25c2.2,0,4-1.8,4-4v-30.3c0-2.2,1.8-4,4-4h40.2c2.2,0,5.3,1.3,6.8,2.8l106,106
				c1.6,1.6,4.1,1.6,5.7,0l11.4-11.4c1.6-1.6,1.6-4.1,0-5.7L261.3,298.4c-1.6-1.6-4.6-2.8-6.8-2.8h-35.8c-2.2,0-3.9-1.8-3.8-4
				c0.6-12,2-46.9-0.2-49.2c-2.5-2.5-245-245-274.1-274.1c-1.6-1.6-2.8-1-2.8,1.2l0.2,80.4C-62,52.1-60.7,55.2-59.1,56.7z
				 M422,632.9L251,461.9c-1.6-1.6-4.6-2.8-6.8-2.8h-26c-2.2,0-4,1.8-4,4v28.4c0,2.2,1.8,4,4,4h20.1c2.2,0,4,1.8,4,4v30.9
				c0,2.2-1.8,4-4,4h-82.1c-2.2,0-5.3,1.3-6.8,2.8l-17.5,17.5c-1.6,1.6-2.8,4.6-2.8,6.8v70.3c0,2.2,1.8,4,4,4h287.8
				C423.1,635.7,423.6,634.5,422,632.9z M500.1-50.3L675.4,125c1.6,1.6,4.1,1.6,5.7,0l6.8-6.8c1.6-1.6,1.6-4.1,0-5.7l-53.6-53.6
				c-1.6-1.6-2.8-4.6-2.8-6.8v-72c0-2.2,1.8-4,4-4h24c2.2,0,5.3,1.3,6.8,2.8l113,113c1.6,1.6,4.1,1.6,5.7,0l8.1-8.1
				c1.6-1.6,1.6-4.1,0-5.7l-26.3-26.3c-1.6-1.6-2.8-4.6-2.8-6.8V27.3c0-2.2,1.8-4,4-4h16c2.2,0,5.3,1.3,6.8,2.8l104.4,104.4
				c1.6,1.6,1.6,4.1,0,5.7l-17.5,17.5c-1.6,1.6-1.6,4.1,0,5.7l58.1,58.1c1.6,1.6,2.8,4.6,2.8,6.8v84.9c0,2.2,1.8,4,4,4h97.3
				c2.2,0,4-1.8,4-4v-120c0-2.2-1.3-5.3-2.8-6.8l-58.3-58.3c-1.6-1.6-4.6-2.8-6.8-2.8h-28.4c-2.2,0-5.3-1.3-6.8-2.8l-62.8-62.8
				c-1.6-1.6-2.8-4.6-2.8-6.8v-97.8c0-2.2-1.8-4-4-4H501.2C499-53.1,498.5-51.8,500.1-50.3z"/>
			<path class="st13" d="M908.2-46v77.3c0,2.2,1.3,5.3,2.8,6.8l45,45c1.6,1.6,4.6,2.8,6.8,2.8h80c2.2,0,4-1.8,4-4V-46
				c0-2.2-1.8-4-4-4H912.2C910-50,908.2-48.2,908.2-46z M1046.9,550.7V385.3c0-2.2-1.8-4-4-4h-82.5c-2.2,0-5.3-1.3-6.8-2.8
				l-37.2-37.2c-1.6-1.6-2.8-4.6-2.8-6.8v-37.1c0-2.2-1.3-5.3-2.8-6.8l-37-37c-1.6-1.6-2.8-4.6-2.8-6.8V202c0-2.2-1.3-5.3-2.8-6.8
				L813.9,141c-1.6-1.6-4.6-2.8-6.8-2.8h-16.9c-2.2,0-5.3-1.3-6.8-2.8l-92.1-92.1c-1.6-1.6-4.1-1.6-5.7,0l-12.5,12.5
				c-1.6,1.6-1.6,4.1,0,5.7l44.4,44.4c1.6,1.6,2.8,4.6,2.8,6.8v43.7c0,2.2,1.3,5.3,2.8,6.8l133.5,133.5c1.6,1.6,2.8,4.6,2.8,6.8
				v59.8c0,2.2,1.3,5.3,2.8,6.8l181.9,181.9C1045.6,553.4,1046.9,552.9,1046.9,550.7z M-91.6,70.5l225.4,225.4
				c1.6,1.6,2.8,4.6,2.8,6.8v75.8c0,2.2,1.8,4,4,4H256c2.2,0,5.3,1.3,6.8,2.8l126.3,126.3c1.6,1.6,1.6,4.1,0,5.7l-22.6,22.6
				c-1.6,1.6-4.1,1.6-5.7,0L255.2,434.1c-1.6-1.6-4.6-2.8-6.8-2.8H203c-2.2,0-4,1.8-4,4v73.3c0,2.2-1.8,4-4,4h-86.5
				c-2.2,0-4,1.8-4,4V639c0,2.2-1.8,4-4,4H-90.4c-2.2,0-4-1.8-4-4V71.6C-94.4,69.4-93.2,68.9-91.6,70.5z M-56.2,54.5l223.2,223.2
				c1.6,1.6,2.8,4.6,2.8,6.8v66.8c0,2.2,1.8,4,4,4h25c2.2,0,4-1.8,4-4v-30.3c0-2.2,1.8-4,4-4h40.2c2.2,0,5.3,1.3,6.8,2.8l106,106
				c1.6,1.6,4.1,1.6,5.7,0l11.4-11.4c1.6-1.6,1.6-4.1,0-5.7L264.3,296.2c-1.6-1.6-4.6-2.8-6.8-2.8h-35.8c-2.2,0-3.9-1.8-3.8-4
				c0.6-12,2-46.9-0.2-49.2c-2.5-2.5-245-245-274.1-274.1c-1.6-1.6-2.8-1-2.8,1.2l0.2,80.4C-59,49.9-57.7,52.9-56.2,54.5z
				 M425,630.7L254,459.6c-1.6-1.6-4.6-2.8-6.8-2.8h-26c-2.2,0-4,1.8-4,4v28.4c0,2.2,1.8,4,4,4h20.1c2.2,0,4,1.8,4,4v30.9
				c0,2.2-1.8,4-4,4h-82.1c-2.2,0-5.3,1.3-6.8,2.8l-17.5,17.5c-1.6,1.6-2.8,4.6-2.8,6.8v70.3c0,2.2,1.8,4,4,4h287.8
				C426.1,633.5,426.6,632.3,425,630.7z M503.1-52.5l175.3,175.3c1.6,1.6,4.1,1.6,5.7,0l6.8-6.8c1.6-1.6,1.6-4.1,0-5.7l-53.6-53.6
				c-1.6-1.6-2.8-4.6-2.8-6.8v-72c0-2.2,1.8-4,4-4h24c2.2,0,5.3,1.3,6.8,2.8l113,113c1.6,1.6,4.1,1.6,5.7,0l8.1-8.1
				c1.6-1.6,1.6-4.1,0-5.7l-26.3-26.3c-1.6-1.6-2.8-4.6-2.8-6.8V25.1c0-2.2,1.8-4,4-4h16c2.2,0,5.3,1.3,6.8,2.8l104.4,104.4
				c1.6,1.6,1.6,4.1,0,5.7l-17.5,17.5c-1.6,1.6-1.6,4.1,0,5.7l58.1,58.1c1.6,1.6,2.8,4.6,2.8,6.8v84.9c0,2.2,1.8,4,4,4h97.3
				c2.2,0,4-1.8,4-4v-120c0-2.2-1.3-5.3-2.8-6.8l-58.3-58.3c-1.6-1.6-4.6-2.8-6.8-2.8h-28.4c-2.2,0-5.3-1.3-6.8-2.8l-62.8-62.8
				c-1.6-1.6-2.8-4.6-2.8-6.8v-97.8c0-2.2-1.8-4-4-4H504.2C502-55.3,501.5-54.1,503.1-52.5z"/>
			<path class="st14" d="M911.2-48.2v77.3c0,2.2,1.3,5.3,2.8,6.8l45,45c1.6,1.6,4.6,2.8,6.8,2.8h80c2.2,0,4-1.8,4-4v-128
				c0-2.2-1.8-4-4-4H915.2C913-52.2,911.2-50.4,911.2-48.2z M1049.9,548.4V383.1c0-2.2-1.8-4-4-4h-82.5c-2.2,0-5.3-1.3-6.8-2.8
				l-37.2-37.2c-1.6-1.6-2.8-4.6-2.8-6.8v-37.1c0-2.2-1.3-5.3-2.8-6.8l-37-37c-1.6-1.6-2.8-4.6-2.8-6.8v-44.7c0-2.2-1.3-5.3-2.8-6.8
				l-54.2-54.2c-1.6-1.6-4.6-2.8-6.8-2.8h-16.9c-2.2,0-5.3-1.3-6.8-2.8L694.2,41c-1.6-1.6-4.1-1.6-5.7,0l-12.5,12.5
				c-1.6,1.6-1.6,4.1,0,5.7l44.4,44.4c1.6,1.6,2.8,4.6,2.8,6.8V154c0,2.2,1.3,5.3,2.8,6.8l133.5,133.5c1.6,1.6,2.8,4.6,2.8,6.8v59.8
				c0,2.2,1.3,5.3,2.8,6.8l181.9,181.9C1048.6,551.2,1049.9,550.7,1049.9,548.4z M-88.6,68.3l225.4,225.4c1.6,1.6,2.8,4.6,2.8,6.8
				v75.8c0,2.2,1.8,4,4,4H259c2.2,0,5.3,1.3,6.8,2.8l126.3,126.3c1.6,1.6,1.6,4.1,0,5.7l-22.6,22.6c-1.6,1.6-4.1,1.6-5.7,0
				L258.2,431.9c-1.6-1.6-4.6-2.8-6.8-2.8h-45.4c-2.2,0-4,1.8-4,4v73.3c0,2.2-1.8,4-4,4h-86.5c-2.2,0-4,1.8-4,4v122.4
				c0,2.2-1.8,4-4,4H-87.4c-2.2,0-4-1.8-4-4V69.4C-91.4,67.2-90.2,66.7-88.6,68.3z M-53.2,52.3l223.2,223.2c1.6,1.6,2.8,4.6,2.8,6.8
				v66.8c0,2.2,1.8,4,4,4h25c2.2,0,4-1.8,4-4v-30.3c0-2.2,1.8-4,4-4h40.2c2.2,0,5.3,1.3,6.8,2.8l106,106c1.6,1.6,4.1,1.6,5.7,0
				l11.4-11.4c1.6-1.6,1.6-4.1,0-5.7L267.3,294c-1.6-1.6-4.6-2.8-6.8-2.8h-35.8c-2.2,0-3.9-1.8-3.8-4c0.6-12,2-46.9-0.2-49.2
				c-2.5-2.5-245-245-274.1-274.1c-1.6-1.6-2.8-1-2.8,1.2l0.2,80.4C-56,47.7-54.7,50.7-53.2,52.3z M428,628.5L257,457.4
				c-1.6-1.6-4.6-2.8-6.8-2.8h-26c-2.2,0-4,1.8-4,4V487c0,2.2,1.8,4,4,4h20.1c2.2,0,4,1.8,4,4v30.9c0,2.2-1.8,4-4,4h-82.1
				c-2.2,0-5.3,1.3-6.8,2.8l-17.5,17.5c-1.6,1.6-2.8,4.6-2.8,6.8v70.3c0,2.2,1.8,4,4,4h287.8C429.1,631.3,429.6,630,428,628.5z
				 M506.1-54.7l175.3,175.3c1.6,1.6,4.1,1.6,5.7,0l6.8-6.8c1.6-1.6,1.6-4.1,0-5.7l-53.6-53.6c-1.6-1.6-2.8-4.6-2.8-6.8v-72
				c0-2.2,1.8-4,4-4h24c2.2,0,5.3,1.3,6.8,2.8l113,113c1.6,1.6,4.1,1.6,5.7,0l8.1-8.1c1.6-1.6,1.6-4.1,0-5.7l-26.3-26.3
				c-1.6-1.6-2.8-4.6-2.8-6.8V22.9c0-2.2,1.8-4,4-4h16c2.2,0,5.3,1.3,6.8,2.8l104.4,104.4c1.6,1.6,1.6,4.1,0,5.7l-17.5,17.5
				c-1.6,1.6-1.6,4.1,0,5.7l58.1,58.1c1.6,1.6,2.8,4.6,2.8,6.8v84.9c0,2.2,1.8,4,4,4h97.3c2.2,0,4-1.8,4-4v-120
				c0-2.2-1.3-5.3-2.8-6.8l-58.3-58.3c-1.6-1.6-4.6-2.8-6.8-2.8h-28.4c-2.2,0-5.3-1.3-6.8-2.8l-62.8-62.8c-1.6-1.6-2.8-4.6-2.8-6.8
				v-97.8c0-2.2-1.8-4-4-4H507.2C505-57.6,504.5-56.3,506.1-54.7z"/>
			<path class="st15" d="M914.2-50.4v77.3c0,2.2,1.3,5.3,2.8,6.8l45,45c1.6,1.6,4.6,2.8,6.8,2.8h80c2.2,0,4-1.8,4-4v-128
				c0-2.2-1.8-4-4-4H918.2C916-54.4,914.2-52.7,914.2-50.4z M1052.9,546.2V380.9c0-2.2-1.8-4-4-4h-82.5c-2.2,0-5.3-1.3-6.8-2.8
				l-37.2-37.2c-1.6-1.6-2.8-4.6-2.8-6.8v-37.1c0-2.2-1.3-5.3-2.8-6.8l-37-37c-1.6-1.6-2.8-4.6-2.8-6.8v-44.7c0-2.2-1.3-5.3-2.8-6.8
				l-54.2-54.2c-1.6-1.6-4.6-2.8-6.8-2.8h-16.9c-2.2,0-5.3-1.3-6.8-2.8l-92.1-92.1c-1.6-1.6-4.1-1.6-5.7,0l-12.5,12.5
				c-1.6,1.6-1.6,4.1,0,5.7l44.4,44.4c1.6,1.6,2.8,4.6,2.8,6.8v43.7c0,2.2,1.3,5.3,2.8,6.8l133.5,133.5c1.6,1.6,2.8,4.6,2.8,6.8
				v59.8c0,2.2,1.3,5.3,2.8,6.8l181.9,181.9C1051.6,549,1052.9,548.4,1052.9,546.2z M-85.6,66l225.4,225.4c1.6,1.6,2.8,4.6,2.8,6.8
				V374c0,2.2,1.8,4,4,4H262c2.2,0,5.3,1.3,6.8,2.8l126.3,126.3c1.6,1.6,1.6,4.1,0,5.7l-22.6,22.6c-1.6,1.6-4.1,1.6-5.7,0
				L261.2,429.7c-1.6-1.6-4.6-2.8-6.8-2.8h-45.4c-2.2,0-4,1.8-4,4v73.3c0,2.2-1.8,4-4,4h-86.5c-2.2,0-4,1.8-4,4v122.4
				c0,2.2-1.8,4-4,4H-84.4c-2.2,0-4-1.8-4-4V67.2C-88.4,65-87.2,64.5-85.6,66z M-50.2,50.1l223.2,223.2c1.6,1.6,2.8,4.6,2.8,6.8
				v66.8c0,2.2,1.8,4,4,4h25c2.2,0,4-1.8,4-4v-30.3c0-2.2,1.8-4,4-4h40.2c2.2,0,5.3,1.3,6.8,2.8l106,106c1.6,1.6,4.1,1.6,5.7,0
				l11.4-11.4c1.6-1.6,1.6-4.1,0-5.7L270.3,291.8c-1.6-1.6-4.6-2.8-6.8-2.8h-35.8c-2.2,0-3.9-1.8-3.8-4c0.6-12,2-46.9-0.2-49.2
				c-2.5-2.5-245-245-274.1-274.1c-1.6-1.6-2.8-1-2.8,1.2l0.2,80.4C-53,45.4-51.7,48.5-50.2,50.1z M431,626.2L259.9,455.2
				c-1.6-1.6-4.6-2.8-6.8-2.8h-26c-2.2,0-4,1.8-4,4v28.4c0,2.2,1.8,4,4,4h20.1c2.2,0,4,1.8,4,4v30.9c0,2.2-1.8,4-4,4h-82.1
				c-2.2,0-5.3,1.3-6.8,2.8L140.8,548c-1.6,1.6-2.8,4.6-2.8,6.8v70.3c0,2.2,1.8,4,4,4h287.8C432,629.1,432.6,627.8,431,626.2z
				 M509.1-56.9l175.3,175.3c1.6,1.6,4.1,1.6,5.7,0l6.8-6.8c1.6-1.6,1.6-4.1,0-5.7l-53.6-53.6c-1.6-1.6-2.8-4.6-2.8-6.8v-72
				c0-2.2,1.8-4,4-4h24c2.2,0,5.3,1.3,6.8,2.8l113,113c1.6,1.6,4.1,1.6,5.7,0l8.1-8.1c1.6-1.6,1.6-4.1,0-5.7l-26.3-26.3
				c-1.6-1.6-2.8-4.6-2.8-6.8V20.7c0-2.2,1.8-4,4-4h16c2.2,0,5.3,1.3,6.8,2.8l104.4,104.4c1.6,1.6,1.6,4.1,0,5.7L886.7,147
				c-1.6,1.6-1.6,4.1,0,5.7l58.1,58.1c1.6,1.6,2.8,4.6,2.8,6.8v84.9c0,2.2,1.8,4,4,4h97.3c2.2,0,4-1.8,4-4v-120
				c0-2.2-1.3-5.3-2.8-6.8l-58.3-58.3c-1.6-1.6-4.6-2.8-6.8-2.8h-28.4c-2.2,0-5.3-1.3-6.8-2.8l-62.8-62.8c-1.6-1.6-2.8-4.6-2.8-6.8
				v-97.8c0-2.2-1.8-4-4-4H510.2C508-59.8,507.5-58.5,509.1-56.9z"/>
		</g>
		
			<radialGradient id="SVGID_00000165216986240789536740000004847043981503382956_" cx="313.3333" cy="5.1113" r="1038.499" gradientUnits="userSpaceOnUse">
			<stop  offset="0" style="stop-color:#2D343F"/>
			<stop  offset="1" style="stop-color:#151A22"/>
		</radialGradient>
		
			<path style="clip-path:url(#SVGID_00000128443175511327272100000000130483801050412682_);fill:url(#SVGID_00000165216986240789536740000004847043981503382956_);" d="
			M-85.6,66l225.4,225.4c1.6,1.6,2.8,4.6,2.8,6.8V374c0,2.2,1.8,4,4,4H262c2.2,0,5.3,1.3,6.8,2.8l126.3,126.3c1.6,1.6,1.6,4.1,0,5.7
			l-22.6,22.6c-1.6,1.6-4.1,1.6-5.7,0L261.2,429.7c-1.6-1.6-4.6-2.8-6.8-2.8h-45.4c-2.2,0-4,1.8-4,4v73.3c0,2.2-1.8,4-4,4h-86.5
			c-2.2,0-4,1.8-4,4v122.4c0,2.2-1.8,4-4,4H-84.4c-2.2,0-4-1.8-4-4V67.2C-88.4,65-87.2,64.5-85.6,66z M-50.2,50.1l223.2,223.2
			c1.6,1.6,2.8,4.6,2.8,6.8v66.8c0,2.2,1.8,4,4,4h25c2.2,0,4-1.8,4-4v-30.3c0-2.2,1.8-4,4-4h40.2c2.2,0,5.3,1.3,6.8,2.8l106,106
			c1.6,1.6,4.1,1.6,5.7,0l11.4-11.4c1.6-1.6,1.6-4.1,0-5.7L270.3,291.8c-1.6-1.6-4.6-2.8-6.8-2.8h-35.8c-2.2,0-3.9-1.8-3.8-4
			c0.6-12,2-46.9-0.2-49.2c-2.5-2.5-245-245-274.1-274.1c-1.6-1.6-2.8-1-2.8,1.2l0.2,80.4C-53,45.4-51.7,48.5-50.2,50.1z M431,626.2
			L259.9,455.2c-1.6-1.6-4.6-2.8-6.8-2.8h-26c-2.2,0-4,1.8-4,4v28.4c0,2.2,1.8,4,4,4h20.1c2.2,0,4,1.8,4,4v30.9c0,2.2-1.8,4-4,4
			h-82.1c-2.2,0-5.3,1.3-6.8,2.8L140.8,548c-1.6,1.6-2.8,4.6-2.8,6.8v70.3c0,2.2,1.8,4,4,4h287.8C432,629.1,432.6,627.8,431,626.2z
			 M1052.9,546.2V380.9c0-2.2-1.8-4-4-4h-82.5c-2.2,0-5.3-1.3-6.8-2.8l-37.2-37.2c-1.6-1.6-2.8-4.6-2.8-6.8v-37.1
			c0-2.2-1.3-5.3-2.8-6.8l-37-37c-1.6-1.6-2.8-4.6-2.8-6.8v-44.7c0-2.2-1.3-5.3-2.8-6.8l-54.2-54.2c-1.6-1.6-4.6-2.8-6.8-2.8h-16.9
			c-2.2,0-5.3-1.3-6.8-2.8l-92.1-92.1c-1.6-1.6-4.1-1.6-5.7,0l-12.5,12.5c-1.6,1.6-1.6,4.1,0,5.7l44.4,44.4c1.6,1.6,2.8,4.6,2.8,6.8
			v43.7c0,2.2,1.3,5.3,2.8,6.8l133.5,133.5c1.6,1.6,2.8,4.6,2.8,6.8v59.8c0,2.2,1.3,5.3,2.8,6.8l181.9,181.9
			C1051.6,549,1052.9,548.4,1052.9,546.2z M509.1-56.9l175.3,175.3c1.6,1.6,4.1,1.6,5.7,0l6.8-6.8c1.6-1.6,1.6-4.1,0-5.7l-53.6-53.6
			c-1.6-1.6-2.8-4.6-2.8-6.8v-72c0-2.2,1.8-4,4-4h24c2.2,0,5.3,1.3,6.8,2.8l113,113c1.6,1.6,4.1,1.6,5.7,0l8.1-8.1
			c1.6-1.6,1.6-4.1,0-5.7l-26.3-26.3c-1.6-1.6-2.8-4.6-2.8-6.8V20.7c0-2.2,1.8-4,4-4h16c2.2,0,5.3,1.3,6.8,2.8l104.4,104.4
			c1.6,1.6,1.6,4.1,0,5.7L886.7,147c-1.6,1.6-1.6,4.1,0,5.7l58.1,58.1c1.6,1.6,2.8,4.6,2.8,6.8v84.9c0,2.2,1.8,4,4,4h97.3
			c2.2,0,4-1.8,4-4v-120c0-2.2-1.3-5.3-2.8-6.8l-58.3-58.3c-1.6-1.6-4.6-2.8-6.8-2.8h-28.4c-2.2,0-5.3-1.3-6.8-2.8l-62.8-62.8
			c-1.6-1.6-2.8-4.6-2.8-6.8v-97.8c0-2.2-1.8-4-4-4H510.2C508-59.8,507.5-58.5,509.1-56.9z M914.2-50.4v77.3c0,2.2,1.3,5.3,2.8,6.8
			l45,45c1.6,1.6,4.6,2.8,6.8,2.8h80c2.2,0,4-1.8,4-4v-128c0-2.2-1.8-4-4-4H918.2C916-54.4,914.2-52.7,914.2-50.4z"/>
		<g style="clip-path:url(#SVGID_00000128443175511327272100000000130483801050412682_);">
			
				<radialGradient id="SVGID_00000112629658180316990260000006574883560260142222_" cx="431.8517" cy="121.7285" r="667.418" gradientUnits="userSpaceOnUse">
				<stop  offset="0" style="stop-color:#FFFFFF"/>
				<stop  offset="1" style="stop-color:#707A8B"/>
			</radialGradient>
			<path style="fill:url(#SVGID_00000112629658180316990260000006574883560260142222_);" d="M202.7,507.7h-83.4
				c-0.6,0-1.3,0.2-1.8,0.4h83.4C201.6,508.1,202.2,508,202.7,507.7z"/>
			
				<radialGradient id="SVGID_00000179628277608843153590000003758007083048530360_" cx="431.8514" cy="121.8519" r="667.261" gradientUnits="userSpaceOnUse">
				<stop  offset="0" style="stop-color:#FFFFFF"/>
				<stop  offset="1" style="stop-color:#707A8B"/>
			</radialGradient>
			<path style="fill:url(#SVGID_00000179628277608843153590000003758007083048530360_);" d="M962.1,78.7c1.6,1.6,4.6,2.8,6.8,2.8h80
				c0.7,0,1.3-0.2,1.8-0.4h-76.9c-2.2,0-5.3-1.3-6.8-2.8l-45-45c-1.6-1.6-2.8-4.6-2.8-6.8v-77.3c0-1.6,0.9-2.9,2.2-3.6h-3.1
				c-2.2,0-4,1.8-4,4v77.3c0,2.2,1.3,5.3,2.8,6.8L962.1,78.7z"/>
			
				<radialGradient id="SVGID_00000114782520652054330320000014322938074865928067_" cx="431.8519" cy="121.8517" r="667.261" gradientUnits="userSpaceOnUse">
				<stop  offset="0" style="stop-color:#FFFFFF"/>
				<stop  offset="1" style="stop-color:#707A8B"/>
			</radialGradient>
			<path style="fill:url(#SVGID_00000114782520652054330320000014322938074865928067_);" d="M216,312.6h37.1c2.2,0,5.3,1.3,6.8,2.8
				l106,106c1.5,1.5,4,1.6,5.6,0.1c-0.2-0.2-0.5-0.3-0.7-0.5l-106-106c-1.6-1.6-4.6-2.8-6.8-2.8h-40.2
				C217.1,312.2,216.5,312.3,216,312.6z"/>
			
				<radialGradient id="SVGID_00000113348561145971937130000001630882877803457441_" cx="431.8522" cy="121.8518" r="667.261" gradientUnits="userSpaceOnUse">
				<stop  offset="0" style="stop-color:#FFFFFF"/>
				<stop  offset="1" style="stop-color:#707A8B"/>
			</radialGradient>
			<path style="fill:url(#SVGID_00000113348561145971937130000001630882877803457441_);" d="M956.4,306c-2.2,0-4-1.8-4-4v-84.9
				c0-2.2-1.3-5.3-2.8-6.8l-58.1-58.1c-1.6-1.6-1.6-4.1,0-5.7l17.5-17.5c1.6-1.6,1.6-4.1,0-5.7L804.6,19.1c-1.6-1.6-4.6-2.8-6.8-2.8
				h-16c-0.6,0-1.3,0.2-1.8,0.4h12.9c2.2,0,5.3,1.3,6.8,2.8l104.4,104.4c1.6,1.6,1.6,4.1,0,5.7L886.7,147c-1.6,1.6-1.6,4.1,0,5.7
				l58.1,58.1c1.6,1.6,2.8,4.6,2.8,6.8v84.9c0,2.2,1.8,4,4,4h97.3c0.7,0,1.3-0.2,1.8-0.4H956.4z"/>
			
				<radialGradient id="SVGID_00000049218227631691090790000013401137549561215415_" cx="431.8518" cy="121.852" r="667.2603" gradientUnits="userSpaceOnUse">
				<stop  offset="0" style="stop-color:#FFFFFF"/>
				<stop  offset="1" style="stop-color:#707A8B"/>
			</radialGradient>
			<path style="fill:url(#SVGID_00000049218227631691090790000013401137549561215415_);" d="M793.8,85.5c-0.2-0.2-0.5-0.3-0.7-0.5
				l-113-113c-1.6-1.6-4.6-2.8-6.8-2.8h-24c-0.6,0-1.3,0.2-1.8,0.4h20.9c2.2,0,5.3,1.3,6.8,2.8l113,113
				C789.8,86.9,792.3,86.9,793.8,85.5z"/>
			
				<radialGradient id="SVGID_00000023964342585343325760000007386635353637027206_" cx="431.8518" cy="121.8515" r="667.2609" gradientUnits="userSpaceOnUse">
				<stop  offset="0" style="stop-color:#FFFFFF"/>
				<stop  offset="1" style="stop-color:#707A8B"/>
			</radialGradient>
			<path style="fill:url(#SVGID_00000023964342585343325760000007386635353637027206_);" d="M372.5,535.5c-0.2-0.2-0.5-0.3-0.7-0.5
				L266.1,429.3c-1.6-1.6-4.6-2.8-6.8-2.8h-45.4c-0.6,0-1.3,0.2-1.8,0.4h42.3c2.2,0,5.3,1.3,6.8,2.8l105.7,105.7
				C368.4,537,370.9,537,372.5,535.5z"/>
			
				<radialGradient id="SVGID_00000071557929351136906510000004057819761538663849_" cx="431.8519" cy="121.8528" r="667.2596" gradientUnits="userSpaceOnUse">
				<stop  offset="0" style="stop-color:#FFFFFF"/>
				<stop  offset="1" style="stop-color:#707A8B"/>
			</radialGradient>
			<path style="fill:url(#SVGID_00000071557929351136906510000004057819761538663849_);" d="M146.9,628.6c-2.2,0-4-1.8-4-4v-70.3
				c0-2.2,1.3-5.3,2.8-6.8l17.5-17.5c1-1,2.6-1.9,4.2-2.4h-2.3c-2.2,0-5.3,1.3-6.8,2.8L140.8,548c-1.6,1.6-2.8,4.6-2.8,6.8v70.3
				c0,2.2,1.8,4,4,4h287.8c0.8,0,1.4-0.2,1.7-0.4H146.9z"/>
			
				<radialGradient id="SVGID_00000103961455154654771440000011035240320972699057_" cx="431.852" cy="121.852" r="667.2607" gradientUnits="userSpaceOnUse">
				<stop  offset="0" style="stop-color:#FFFFFF"/>
				<stop  offset="1" style="stop-color:#707A8B"/>
			</radialGradient>
			<path style="fill:url(#SVGID_00000103961455154654771440000011035240320972699057_);" d="M689.3,117.9L513.9-57.4
				c-1-1-1.1-1.9-0.5-2.4h-3.2c-2.2,0-2.7,1.3-1.2,2.8l175.3,175.3c1.5,1.5,4,1.6,5.6,0.1C689.7,118.3,689.5,118.1,689.3,117.9z"/>
			
				<radialGradient id="SVGID_00000183951070601692410290000005769474498952604597_" cx="431.8509" cy="121.8518" r="667.2609" gradientUnits="userSpaceOnUse">
				<stop  offset="0" style="stop-color:#FFFFFF"/>
				<stop  offset="1" style="stop-color:#707A8B"/>
			</radialGradient>
			<path style="fill:url(#SVGID_00000183951070601692410290000005769474498952604597_);" d="M873.1,365.1c-1.6-1.6-2.8-4.6-2.8-6.8
				v-59.8c0-2.2-1.3-5.3-2.8-6.8L734,158.1c-1.6-1.6-2.8-4.6-2.8-6.8v-43.7c0-2.2-1.3-5.3-2.8-6.8l-44.4-44.4
				c-1.6-1.6-1.6-4.1,0-5.7l12.5-12.5c0,0,0.1-0.1,0.1-0.1c-1.5-1-3.6-0.8-5,0.5l-12.5,12.5c-1.6,1.6-1.6,4.1,0,5.7l44.4,44.4
				c1.6,1.6,2.8,4.6,2.8,6.8v43.7c0,2.2,1.3,5.3,2.8,6.8l133.5,133.5c1.6,1.6,2.8,4.6,2.8,6.8v59.8c0,2.2,1.3,5.3,2.8,6.8
				l181.9,181.9c1.6,1.6,2.8,1,2.8-1.2v-1.3L873.1,365.1z"/>
			
				<radialGradient id="SVGID_00000023960480912568320080000001859180263438827417_" cx="431.8521" cy="121.8519" r="667.2616" gradientUnits="userSpaceOnUse">
				<stop  offset="0" style="stop-color:#FFFFFF"/>
				<stop  offset="1" style="stop-color:#707A8B"/>
			</radialGradient>
			<path style="fill:url(#SVGID_00000023960480912568320080000001859180263438827417_);" d="M-50.2,50.1l223.2,223.2
				c1.6,1.6,2.8,4.6,2.8,6.8v66.8c0,2.2,1.8,4,4,4h25c0.6,0,1.3-0.2,1.8-0.4h-21.9c-2.2,0-4-1.8-4-4v-66.8c0-2.2-1.3-5.3-2.8-6.8
				L-45.3,49.6c-1.6-1.6-2.8-4.6-2.8-6.8l-0.2-79c-0.8-0.8-1.5-1.5-2.1-2.1c-1.6-1.6-2.8-1-2.8,1.2l0.2,80.4
				C-53,45.4-51.7,48.5-50.2,50.1z"/>
			
				<radialGradient id="SVGID_00000082350926659246592930000014460575232406932652_" cx="431.8528" cy="121.8518" r="667.2617" gradientUnits="userSpaceOnUse">
				<stop  offset="0" style="stop-color:#FFFFFF"/>
				<stop  offset="1" style="stop-color:#707A8B"/>
			</radialGradient>
			<path style="fill:url(#SVGID_00000082350926659246592930000014460575232406932652_);" d="M-79.6,638.1c-2.2,0-4-1.8-4-4V68.1
				l-2.1-2.1c-1.6-1.6-2.8-1-2.8,1.2v567.4c0,2.2,1.8,4,4,4h190.9c0.7,0,1.3-0.2,1.8-0.4H-79.6z"/>
			
				<radialGradient id="SVGID_00000041976949753783552100000016618555607169914299_" cx="431.8515" cy="121.8526" r="667.2598" gradientUnits="userSpaceOnUse">
				<stop  offset="0" style="stop-color:#FFFFFF"/>
				<stop  offset="1" style="stop-color:#707A8B"/>
			</radialGradient>
			<path style="fill:url(#SVGID_00000041976949753783552100000016618555607169914299_);" d="M249,527.2h3.1c2.2,0,4-1.8,4-4v-30.9
				c0-2.2-1.8-4-4-4H232c-2.2,0-4-1.8-4-4v-28.4c0-1.6,0.9-2.9,2.2-3.6h-3.1c-2.2,0-4,1.8-4,4v28.4c0,2.2,1.8,4,4,4h20.1
				c2.2,0,4,1.8,4,4v30.9C251.2,525.2,250.3,526.6,249,527.2z"/>
		</g>
		<g style="clip-path:url(#SVGID_00000128443175511327272100000000130483801050412682_);">
			<path class="st29" d="M-109.7,96.6c-1.4-1.4-1.4-3.7,0-5.1c1.4-1.4,3.7-1.4,5.1,0l217.3,217.3c0.7,0.7,1.1,1.6,1.1,2.5v83h142.4
				c0.9,0,1.9,0.4,2.5,1.1l104.9,104.9c1.4,1.4,1.4,3.7,0,5.1c-1.4,1.4-3.7,1.4-5.1,0L254.6,401.6H110.1c-0.9,0-1.9-0.4-2.5-1.1
				c-0.7-0.7-1.1-1.6-1.1-2.5v-85.2L-109.7,96.6L-109.7,96.6z M32.7,632.7V485.1l137.4,0c2,0,3.6-1.6,3.6-3.6c0-2-1.6-3.6-3.6-3.6
				l-141,0c-0.9,0-1.9,0.4-2.5,1.1c-0.7,0.7-1.1,1.6-1.1,2.5v151.2c0,2,1.6,3.6,3.6,3.6C31.1,636.3,32.7,634.7,32.7,632.7
				L32.7,632.7z M409.1,641.4L285,517.2c-1.4-1.4-3.7-1.4-5.1,0c-1.4,1.4-1.4,3.7,0,5.1L404,646.5c1.4,1.4,3.7,1.4,5.1,0
				C410.5,645.1,410.5,642.8,409.1,641.4 M-65.9-2.1L162,225.8c1.4,1.4,3.7,1.4,5.1,0c1.4-1.4,1.4-3.7,0-5.1L-60.8-7.2
				c-1.4-1.4-3.7-1.4-5.1,0C-67.3-5.8-67.3-3.5-65.9-2.1 M1063.4,525.2L896.7,358.6v-65.6c0-1-0.4-1.9-1.1-2.5L770.4,165.1
				c-1.4-1.4-3.7-1.4-5.1,0c-1.4,1.4-1.4,3.7,0,5.1l124.2,124.2v65.6c0,0.9,0.4,1.9,1.1,2.5l167.7,167.7c1.4,1.4,3.7,1.4,5.1,0
				C1064.8,528.9,1064.8,526.6,1063.4,525.2L1063.4,525.2z M746-70.6l192.4,192.4l-24.9,24.9c-1.4,1.4-1.4,3.7,0,5.1l57.9,57.9l0,68
				c0,0.9,0.4,1.9,1.1,2.5c0.7,0.7,1.6,1.1,2.5,1.1h62.1c2,0,3.6-1.6,3.6-3.6c0-2-1.6-3.6-3.6-3.6l-58.5,0l0-65.9
				c0-1-0.4-1.9-1.1-2.5l-56.4-56.4l24.9-24.9c0.7-0.7,1.1-1.6,1.1-2.5c0-0.9-0.4-1.9-1.1-2.5l-195-195c-1.4-1.4-3.7-1.4-5.1,0
				C744.6-74.3,744.6-72,746-70.6L746-70.6z M625.5-54.4v82.3c0,2,1.6,3.6,3.6,3.6c2,0,3.6-1.6,3.6-3.6v-82.3c0-2-1.6-3.6-3.6-3.6
				C627.1-58,625.5-56.4,625.5-54.4 M1037.1,59.6H977l-36.5-36.5c-1.4-1.4-3.7-1.4-5.1,0c-1.4,1.4-1.4,3.7,0,5.1l37.5,37.5
				c0.7,0.7,1.6,1.1,2.5,1.1h61.6c2,0,3.6-1.6,3.6-3.6C1040.7,61.2,1039.1,59.6,1037.1,59.6L1037.1,59.6z"/>
			
				<radialGradient id="SVGID_00000109009097089883808690000018221981551630922116_" cx="387.3339" cy="51.3336" r="995.4387" gradientUnits="userSpaceOnUse">
				<stop  offset="0" style="stop-color:#85CEFF"/>
				<stop  offset="0.1872" style="stop-color:#0F87EA"/>
				<stop  offset="0.4106" style="stop-color:#0C71C5"/>
				<stop  offset="0.5279" style="stop-color:#0F87EA"/>
				<stop  offset="0.6341" style="stop-color:#85CEFF"/>
				<stop  offset="0.729" style="stop-color:#0C71C5"/>
				<stop  offset="0.8575" style="stop-color:#06447C"/>
				<stop  offset="1" style="stop-color:#032E58"/>
			</radialGradient>
			<path style="fill:url(#SVGID_00000109009097089883808690000018221981551630922116_);" d="M359.6,504.3L255.3,400H110.1
				c-0.5,0-1-0.2-1.4-0.6c-0.4-0.4-0.6-0.9-0.6-1.4v-85.8L-108.6,95.4l0,0c-0.8-0.8-0.8-2,0-2.8c0.8-0.8,2-0.8,2.8,0l217.3,217.3
				c0.4,0.4,0.6,0.9,0.6,1.4l0,84.6h144c0.5,0,1,0.2,1.4,0.6l104.9,104.9c0.8,0.8,0.8,2,0,2.8C361.6,505.1,360.3,505.1,359.6,504.3z
				 M170.1,479.5h-141c-0.5,0-1,0.2-1.4,0.6c-0.4,0.4-0.6,0.9-0.6,1.4v151.2c0,1.1,0.9,2,2,2c1.1,0,2-0.9,2-2h0V483.5h139
				c1.1,0,2-0.9,2-2C172.1,480.4,171.3,479.5,170.1,479.5z M283.9,518.4c-0.8-0.8-2-0.8-2.8,0c-0.8,0.8-0.8,2,0,2.8l124.1,124.1
				c0.8,0.8,2,0.8,2.8,0c0.8-0.8,0.8-2,0-2.8L283.9,518.4z M163.1,224.7c0.8,0.8,2,0.8,2.8,0c0.8-0.8,0.8-2,0-2.8L-61.9-6
				c-0.8-0.8-2-0.8-2.8,0c-0.8,0.8-0.8,2,0,2.8L163.1,224.7z M1062.2,526.4L1062.2,526.4L895.1,359.2v-66.3c0-0.5-0.2-1-0.6-1.4
				L769.3,166.3c-0.8-0.8-2-0.8-2.8,0c-0.8,0.8-0.8,2,0,2.8l124.7,124.7l0,66.3c0,0.5,0.2,1,0.6,1.4l167.7,167.7
				c0.8,0.8,2,0.8,2.8,0C1063,528.4,1063,527.1,1062.2,526.4z M940.7,121.9l-26,26c-0.8,0.8-0.8,2,0,2.8l58.4,58.4l0,68.7
				c0,0.5,0.2,1,0.6,1.4c0.4,0.4,0.9,0.6,1.4,0.6h62.1c1.1,0,2-0.9,2-2c0-1.1-0.9-2-2-2H977v-67.5c0-0.5-0.2-1-0.6-1.4l-57.5-57.5
				l26-26c0.4-0.4,0.6-0.9,0.6-1.4s-0.2-1-0.6-1.4l-195-195c-0.8-0.8-2-0.8-2.8,0s-0.8,2,0,2.8h0L940.7,121.9z M629.1-56.4
				c-1.1,0-2,0.9-2,2v82.3c0,1.1,0.9,2,2,2c1.1,0,2-0.9,2-2v-82.3C631.1-55.5,630.2-56.4,629.1-56.4z M974.1,64.6
				c0.4,0.4,0.9,0.6,1.4,0.6h61.6c1.1,0,2-0.9,2-2c0-1.1-0.9-2-2-2v0h-60.8l-36.9-36.9c-0.8-0.8-2-0.8-2.8,0c-0.8,0.8-0.8,2,0,2.8
				L974.1,64.6z"/>
			
				<radialGradient id="SVGID_00000056410236980500192920000000198965678681970851_" cx="387.3339" cy="51.3336" r="995.4387" gradientUnits="userSpaceOnUse">
				<stop  offset="0" style="stop-color:#85CEFF"/>
				<stop  offset="0.1872" style="stop-color:#0F87EA"/>
				<stop  offset="0.3659" style="stop-color:#000000"/>
				<stop  offset="0.5559" style="stop-color:#85CEFF"/>
				<stop  offset="0.7961" style="stop-color:#000000"/>
				<stop  offset="1" style="stop-color:#032E58"/>
			</radialGradient>
			<path style="fill:url(#SVGID_00000056410236980500192920000000198965678681970851_);" d="M359.6,504.3L255.3,400H110.1
				c-0.5,0-1-0.2-1.4-0.6c-0.4-0.4-0.6-0.9-0.6-1.4v-85.8L-108.6,95.4l0,0c-0.8-0.8-0.8-2,0-2.8c0.8-0.8,2-0.8,2.8,0l217.3,217.3
				c0.4,0.4,0.6,0.9,0.6,1.4l0,84.6h144c0.5,0,1,0.2,1.4,0.6l104.9,104.9c0.8,0.8,0.8,2,0,2.8C361.6,505.1,360.3,505.1,359.6,504.3z
				 M170.1,479.5h-141c-0.5,0-1,0.2-1.4,0.6c-0.4,0.4-0.6,0.9-0.6,1.4v151.2c0,1.1,0.9,2,2,2c1.1,0,2-0.9,2-2h0V483.5h139
				c1.1,0,2-0.9,2-2C172.1,480.4,171.3,479.5,170.1,479.5z M283.9,518.4c-0.8-0.8-2-0.8-2.8,0c-0.8,0.8-0.8,2,0,2.8l124.1,124.1
				c0.8,0.8,2,0.8,2.8,0c0.8-0.8,0.8-2,0-2.8L283.9,518.4z M163.1,224.7c0.8,0.8,2,0.8,2.8,0c0.8-0.8,0.8-2,0-2.8L-61.9-6
				c-0.8-0.8-2-0.8-2.8,0c-0.8,0.8-0.8,2,0,2.8L163.1,224.7z M1062.2,526.4L1062.2,526.4L895.1,359.2v-66.3c0-0.5-0.2-1-0.6-1.4
				L769.3,166.3c-0.8-0.8-2-0.8-2.8,0c-0.8,0.8-0.8,2,0,2.8l124.7,124.7l0,66.3c0,0.5,0.2,1,0.6,1.4l167.7,167.7
				c0.8,0.8,2,0.8,2.8,0C1063,528.4,1063,527.1,1062.2,526.4z M940.7,121.9l-26,26c-0.8,0.8-0.8,2,0,2.8l58.4,58.4l0,68.7
				c0,0.5,0.2,1,0.6,1.4c0.4,0.4,0.9,0.6,1.4,0.6h62.1c1.1,0,2-0.9,2-2c0-1.1-0.9-2-2-2H977v-67.5c0-0.5-0.2-1-0.6-1.4l-57.5-57.5
				l26-26c0.4-0.4,0.6-0.9,0.6-1.4s-0.2-1-0.6-1.4l-195-195c-0.8-0.8-2-0.8-2.8,0s-0.8,2,0,2.8h0L940.7,121.9z M629.1-56.4
				c-1.1,0-2,0.9-2,2v82.3c0,1.1,0.9,2,2,2c1.1,0,2-0.9,2-2v-82.3C631.1-55.5,630.2-56.4,629.1-56.4z M974.1,64.6
				c0.4,0.4,0.9,0.6,1.4,0.6h61.6c1.1,0,2-0.9,2-2c0-1.1-0.9-2-2-2v0h-60.8l-36.9-36.9c-0.8-0.8-2-0.8-2.8,0c-0.8,0.8-0.8,2,0,2.8
				L974.1,64.6z"/>
		</g>
	</g>
</g>
</svg>
